solid OpenSCAD_Model
  facet normal -0.7510266 0.43360543 -0.4979412
    outer loop
      vertex -6.545085 4.7552824 -5.8778524
      vertex -8.345653 3.715724 -4.0673656
      vertex -7.3907375 5.369685 -4.0673656
    endloop
  endfacet
  facet normal 0.9891328 -0.1039625 -0.10396173
    outer loop
      vertex 9.781475 -2.0791168 0
      vertex 9.567727 -2.0336828 -2.0791168
      vertex 10 0 0
    endloop
  endfacet
  facet normal 0.34673384 -0.47723764 -0.8074775
    outer loop
      vertex 4.477357 -4.9726086 -7.431448
      vertex 3.3456526 -5.794841 -7.431448
      vertex 3.3456526 -3.715724 -8.660254
    endloop
  endfacet
  facet normal 0.19877721 -0.06458667 -0.9779142
    outer loop
      vertex 2.8230104 -1.2568846 -9.510565
      vertex 1.0224419 -0.21732616 -9.945218
      vertex 3.0226421 -0.6424818 -9.510565
    endloop
  endfacet
  facet normal -0.40636554 0.042710874 -0.9127118
    outer loop
      vertex -3.09017 0 -9.510565
      vertex -5 0 -8.660254
      vertex -3.0226421 0.6424818 -9.510565
    endloop
  endfacet
  facet normal 0.708508 -0.23020805 -0.6670987
    outer loop
      vertex 7.3907375 -3.2905684 -5.8778524
      vertex 6.545085 -1.3912001 -7.431448
      vertex 7.9133797 -1.6820402 -5.8778524
    endloop
  endfacet
  facet normal 0.38703158 -0.8692869 -0.3074847
    outer loop
      vertex 3.0226421 -9.302736 -2.0791168
      vertex 2.8230104 -8.6883335 -4.0673656
      vertex 4.8907375 -8.471006 -2.0791168
    endloop
  endfacet
  facet normal -0.5593089 -0.76982254 -0.3074847
    outer loop
      vertex -4.8907375 -8.471006 -2.0791168
      vertex -6.545085 -7.2690525 -2.0791168
      vertex -6.112812 -6.788965 -4.0673656
    endloop
  endfacet
  facet normal -0.4045327 0.9085952 -0.10396202
    outer loop
      vertex -3.0226421 9.302736 -2.0791168
      vertex -5 8.660254 0
      vertex -3.09017 9.510565 0
    endloop
  endfacet
  facet normal -0.23993327 -0.5388989 -0.8074776
    outer loop
      vertex -1.545085 -4.7552824 -8.660254
      vertex -3.3456526 -5.794841 -7.431448
      vertex -2.5 -4.330127 -8.660254
    endloop
  endfacet
  facet normal 0.122646734 0.57700765 -0.80747753
    outer loop
      vertex 1.545085 4.7552824 -8.660254
      vertex 0.6994314 6.6546497 -7.431448
      vertex 2.067727 6.3638096 -7.431448
    endloop
  endfacet
  facet normal 0.18030332 -0.8482599 -0.49794155
    outer loop
      vertex 2.8230104 -8.6883335 -4.0673656
      vertex 0.8456526 -8.045851 -5.8778524
      vertex 2.5 -7.694208 -5.8778524
    endloop
  endfacet
  facet normal 0.24017166 0.33056718 -0.91271186
    outer loop
      vertex 2.067727 2.296443 -9.510565
      vertex 1.545085 2.6761656 -9.510565
      vertex 3.3456526 3.715724 -8.660254
    endloop
  endfacet
  facet normal 0.3467336 -0.47723767 -0.80747753
    outer loop
      vertex 3.3456526 -5.794841 -7.431448
      vertex 2.5 -4.330127 -8.660254
      vertex 3.3456526 -3.715724 -8.660254
    endloop
  endfacet
  facet normal 0.739118 0.66550463 -0.103962414
    outer loop
      vertex 7.9133797 5.749407 -2.0791168
      vertex 6.545085 7.2690525 -2.0791168
      vertex 8.09017 5.8778524 0
    endloop
  endfacet
  facet normal 0.64446306 -0.5802774 -0.49794132
    outer loop
      vertex 6.112812 -6.788965 -4.0673656
      vertex 5.4133797 -6.012168 -5.8778524
      vertex 6.545085 -4.7552824 -5.8778524
    endloop
  endfacet
  facet normal -0.4045327 -0.9085952 -0.10396202
    outer loop
      vertex -3.09017 -9.510565 0
      vertex -5 -8.660254 0
      vertex -3.0226421 -9.302736 -2.0791168
    endloop
  endfacet
  facet normal -0.12264631 0.57700753 -0.80747765
    outer loop
      vertex -0.52264214 4.9726086 -8.660254
      vertex -1.545085 4.7552824 -8.660254
      vertex -0.6994314 6.6546497 -7.431448
    endloop
  endfacet
  facet normal 0.5593089 0.76982254 -0.3074847
    outer loop
      vertex 6.112812 6.788965 -4.0673656
      vertex 4.567727 7.9115353 -4.0673656
      vertex 4.8907375 8.471006 -2.0791168
    endloop
  endfacet
  facet normal -0.94634026 0.09946444 -0.30748484
    outer loop
      vertex -9.135454 0 -4.0673656
      vertex -9.567727 2.0336828 -2.0791168
      vertex -8.9358225 1.8993673 -4.0673656
    endloop
  endfacet
  facet normal -0.94590294 0.30734268 -0.103962064
    outer loop
      vertex -8.9358225 3.9784842 -2.0791168
      vertex -9.567727 2.0336828 -2.0791168
      vertex -9.135454 4.0673656 0
    endloop
  endfacet
  facet normal 0.5593089 -0.76982254 -0.3074847
    outer loop
      vertex 6.545085 -7.2690525 -2.0791168
      vertex 4.8907375 -8.471006 -2.0791168
      vertex 6.112812 -6.788965 -4.0673656
    endloop
  endfacet
  facet normal 0.8247664 0.26798278 -0.49794134
    outer loop
      vertex 8.9358225 1.8993673 -4.0673656
      vertex 7.3907375 3.2905684 -5.8778524
      vertex 8.345653 3.715724 -4.0673656
    endloop
  endfacet
  facet normal -0.7510266 -0.43360516 -0.49794137
    outer loop
      vertex -6.545085 -4.7552824 -5.8778524
      vertex -8.345653 -3.715724 -4.0673656
      vertex -7.3907375 -3.2905684 -5.8778524
    endloop
  endfacet
  facet normal 0.20678481 -0.97284734 -0.103961766
    outer loop
      vertex 1.0452843 -9.945218 0
      vertex 1.0224419 -9.727892 -2.0791168
      vertex 3.09017 -9.510565 0
    endloop
  endfacet
  facet normal 0.3527262 -0.7922364 -0.49794152
    outer loop
      vertex 2.8230104 -8.6883335 -4.0673656
      vertex 2.5 -7.694208 -5.8778524
      vertex 4.045085 -7.0062923 -5.8778524
    endloop
  endfacet
  facet normal -0.90498066 -0.2940462 -0.30748466
    outer loop
      vertex -8.9358225 -3.9784842 -2.0791168
      vertex -9.567727 -2.0336828 -2.0791168
      vertex -8.345653 -3.715724 -4.0673656
    endloop
  endfacet
  facet normal 0.5593089 0.76982254 -0.3074847
    outer loop
      vertex 6.112812 6.788965 -4.0673656
      vertex 4.8907375 8.471006 -2.0791168
      vertex 6.545085 7.2690525 -2.0791168
    endloop
  endfacet
  facet normal 0.94634044 -0.09946406 -0.30748448
    outer loop
      vertex 9.567727 -2.0336828 -2.0791168
      vertex 9.135454 0 -4.0673656
      vertex 9.781475 0 -2.0791168
    endloop
  endfacet
  facet normal 0.30300614 -0.68056333 -0.6670988
    outer loop
      vertex 2.5 -7.694208 -5.8778524
      vertex 2.067727 -6.3638096 -7.431448
      vertex 3.3456526 -5.794841 -7.431448
    endloop
  endfacet
  facet normal 0.5536198 -0.49848172 -0.667099
    outer loop
      vertex 5.4133797 -6.012168 -5.8778524
      vertex 4.477357 -4.9726086 -7.431448
      vertex 6.545085 -4.7552824 -5.8778524
    endloop
  endfacet
  facet normal 0.74088806 0.07787004 -0.66709906
    outer loop
      vertex 6.691305 0 -7.431448
      vertex 6.545085 1.3912001 -7.431448
      vertex 8.09017 0 -5.8778524
    endloop
  endfacet
  facet normal -0.64516234 -0.37248445 -0.6670988
    outer loop
      vertex -6.545085 -4.7552824 -5.8778524
      vertex -7.3907375 -3.2905684 -5.8778524
      vertex -6.112812 -2.7215986 -7.431448
    endloop
  endfacet
  facet normal -0.5610266 -0.18228866 -0.8074776
    outer loop
      vertex -6.112812 -2.7215986 -7.431448
      vertex -6.545085 -1.3912001 -7.431448
      vertex -4.567727 -2.0336828 -8.660254
    endloop
  endfacet
  facet normal 0.4383799 0.39471912 -0.8074775
    outer loop
      vertex 5.4133797 3.9330502 -7.431448
      vertex 3.3456526 3.715724 -8.660254
      vertex 4.477357 4.9726086 -7.431448
    endloop
  endfacet
  facet normal -0.40453273 -0.90859514 -0.103962064
    outer loop
      vertex -3.0226421 -9.302736 -2.0791168
      vertex -5 -8.660254 0
      vertex -4.8907375 -8.471006 -2.0791168
    endloop
  endfacet
  facet normal 0.8240691 -0.47577658 -0.3074846
    outer loop
      vertex 8.9358225 -3.9784842 -2.0791168
      vertex 7.3907375 -5.369685 -4.0673656
      vertex 8.345653 -3.715724 -4.0673656
    endloop
  endfacet
  facet normal -0.20786168 0.021847628 -0.9779142
    outer loop
      vertex -1.0452843 0 -9.945218
      vertex -3.0226421 0.6424818 -9.510565
      vertex -1.0224419 0.21732616 -9.945218
    endloop
  endfacet
  facet normal 0.18030304 -0.84826016 -0.49794132
    outer loop
      vertex 0.9549141 -9.085409 -4.0673656
      vertex 0.8456526 -8.045851 -5.8778524
      vertex 2.8230104 -8.6883335 -4.0673656
    endloop
  endfacet
  facet normal 0.12285151 -0.16908969 -0.9779142
    outer loop
      vertex 2.067727 -2.296443 -9.510565
      vertex 0.52264214 -0.9052429 -9.945218
      vertex 0.6994314 -0.7767973 -9.945218
    endloop
  endfacet
  facet normal 0.50973374 -0.7015882 -0.4979413
    outer loop
      vertex 6.112812 -6.788965 -4.0673656
      vertex 4.045085 -7.0062923 -5.8778524
      vertex 5.4133797 -6.012168 -5.8778524
    endloop
  endfacet
  facet normal -0.7510266 -0.43360543 -0.4979412
    outer loop
      vertex -7.3907375 -5.369685 -4.0673656
      vertex -8.345653 -3.715724 -4.0673656
      vertex -6.545085 -4.7552824 -5.8778524
    endloop
  endfacet
  facet normal 0 -0.7449692 -0.6670989
    outer loop
      vertex -0.6994314 -6.6546497 -7.431448
      vertex 0.8456526 -8.045851 -5.8778524
      vertex -0.8456526 -8.045851 -5.8778524
    endloop
  endfacet
  facet normal 0 -0.7449692 -0.6670989
    outer loop
      vertex 0.8456526 -8.045851 -5.8778524
      vertex -0.6994314 -6.6546497 -7.431448
      vertex 0.6994314 -6.6546497 -7.431448
    endloop
  endfacet
  facet normal -0.19783898 -0.9307593 -0.30748466
    outer loop
      vertex -1.0224419 -9.727892 -2.0791168
      vertex -3.0226421 -9.302736 -2.0791168
      vertex -2.8230104 -8.6883335 -4.0673656
    endloop
  endfacet
  facet normal -0.18030304 -0.84826016 -0.49794132
    outer loop
      vertex -0.9549141 -9.085409 -4.0673656
      vertex -2.8230104 -8.6883335 -4.0673656
      vertex -0.8456526 -8.045851 -5.8778524
    endloop
  endfacet
  facet normal -0.38703158 -0.8692869 -0.3074847
    outer loop
      vertex -3.0226421 -9.302736 -2.0791168
      vertex -4.8907375 -8.471006 -2.0791168
      vertex -2.8230104 -8.6883335 -4.0673656
    endloop
  endfacet
  facet normal -0.7071418 -0.63671315 -0.3074846
    outer loop
      vertex -6.545085 -7.2690525 -2.0791168
      vertex -7.9133797 -5.749407 -2.0791168
      vertex -7.3907375 -5.369685 -4.0673656
    endloop
  endfacet
  facet normal -0.51086694 0.29494908 -0.8074776
    outer loop
      vertex -4.567727 2.0336828 -8.660254
      vertex -6.112812 2.7215986 -7.431448
      vertex -4.045085 2.9389257 -8.660254
    endloop
  endfacet
  facet normal 0.94590306 0.30734238 -0.103961766
    outer loop
      vertex 9.567727 2.0336828 -2.0791168
      vertex 9.135454 4.0673656 0
      vertex 9.781475 2.0791168 0
    endloop
  endfacet
  facet normal 0.8613326 0.49729067 -0.103962414
    outer loop
      vertex 8.9358225 3.9784842 -2.0791168
      vertex 7.9133797 5.749407 -2.0791168
      vertex 8.09017 5.8778524 0
    endloop
  endfacet
  facet normal -0.20678481 0.97284734 -0.103961766
    outer loop
      vertex -1.0224419 9.727892 -2.0791168
      vertex -3.09017 9.510565 0
      vertex -1.0452843 9.945218 0
    endloop
  endfacet
  facet normal 0.30365187 0.2734094 -0.9127118
    outer loop
      vertex 4.045085 2.9389257 -8.660254
      vertex 2.5 1.8163557 -9.510565
      vertex 3.3456526 3.715724 -8.660254
    endloop
  endfacet
  facet normal 0.51086694 0.29494908 -0.8074776
    outer loop
      vertex 4.567727 2.0336828 -8.660254
      vertex 4.045085 2.9389257 -8.660254
      vertex 6.112812 2.7215986 -7.431448
    endloop
  endfacet
  facet normal 0.2078618 0.021847224 -0.9779142
    outer loop
      vertex 3.09017 0 -9.510565
      vertex 1.0452843 0 -9.945218
      vertex 3.0226421 0.6424818 -9.510565
    endloop
  endfacet
  facet normal 0.40636554 0.042710874 -0.9127118
    outer loop
      vertex 3.09017 0 -9.510565
      vertex 3.0226421 0.6424818 -9.510565
      vertex 5 0 -8.660254
    endloop
  endfacet
  facet normal 0.90498066 -0.29404598 -0.30748484
    outer loop
      vertex 9.567727 -2.0336828 -2.0791168
      vertex 8.345653 -3.715724 -4.0673656
      vertex 8.9358225 -1.8993673 -4.0673656
    endloop
  endfacet
  facet normal 0.739118 -0.66550463 -0.103962414
    outer loop
      vertex 8.09017 -5.8778524 0
      vertex 6.545085 -7.2690525 -2.0791168
      vertex 7.9133797 -5.749407 -2.0791168
    endloop
  endfacet
  facet normal -0.50973374 0.7015882 -0.4979413
    outer loop
      vertex -5.4133797 6.012168 -5.8778524
      vertex -6.112812 6.788965 -4.0673656
      vertex -4.045085 7.0062923 -5.8778524
    endloop
  endfacet
  facet normal -0.3538614 -0.20430192 -0.9127118
    outer loop
      vertex -4.045085 -2.9389257 -8.660254
      vertex -4.567727 -2.0336828 -8.660254
      vertex -2.5 -1.8163557 -9.510565
    endloop
  endfacet
  facet normal -0.94590294 -0.30734268 -0.103962064
    outer loop
      vertex -9.135454 -4.0673656 0
      vertex -9.567727 -2.0336828 -2.0791168
      vertex -8.9358225 -3.9784842 -2.0791168
    endloop
  endfacet
  facet normal -0.9891328 -0.103961706 -0.1039625
    outer loop
      vertex -9.567727 -2.0336828 -2.0791168
      vertex -10 0 0
      vertex -9.781475 0 -2.0791168
    endloop
  endfacet
  facet normal -0.43788213 0.60269237 -0.66709906
    outer loop
      vertex -4.477357 4.9726086 -7.431448
      vertex -5.4133797 6.012168 -5.8778524
      vertex -3.3456526 5.794841 -7.431448
    endloop
  endfacet
  facet normal -0.5866666 0.06166141 -0.80747765
    outer loop
      vertex -5 0 -8.660254
      vertex -6.545085 1.3912001 -7.431448
      vertex -4.8907375 1.0395584 -8.660254
    endloop
  endfacet
  facet normal 0.64446306 0.5802774 -0.49794132
    outer loop
      vertex 6.545085 4.7552824 -5.8778524
      vertex 5.4133797 6.012168 -5.8778524
      vertex 6.112812 6.788965 -4.0673656
    endloop
  endfacet
  facet normal 0.5846002 -0.8046331 -0.10396211
    outer loop
      vertex 5 -8.660254 0
      vertex 4.8907375 -8.471006 -2.0791168
      vertex 6.545085 -7.2690525 -2.0791168
    endloop
  endfacet
  facet normal 0.7071418 -0.63671315 -0.3074846
    outer loop
      vertex 7.9133797 -5.749407 -2.0791168
      vertex 6.545085 -7.2690525 -2.0791168
      vertex 7.3907375 -5.369685 -4.0673656
    endloop
  endfacet
  facet normal 0.7510266 -0.43360543 -0.4979412
    outer loop
      vertex 7.3907375 -5.369685 -4.0673656
      vertex 6.545085 -4.7552824 -5.8778524
      vertex 8.345653 -3.715724 -4.0673656
    endloop
  endfacet
  facet normal 0.90498066 -0.2940462 -0.30748466
    outer loop
      vertex 8.9358225 -3.9784842 -2.0791168
      vertex 8.345653 -3.715724 -4.0673656
      vertex 9.567727 -2.0336828 -2.0791168
    endloop
  endfacet
  facet normal 0.43788213 -0.60269237 -0.66709906
    outer loop
      vertex 5.4133797 -6.012168 -5.8778524
      vertex 3.3456526 -5.794841 -7.431448
      vertex 4.477357 -4.9726086 -7.431448
    endloop
  endfacet
  facet normal 0.51086694 -0.29494908 -0.8074776
    outer loop
      vertex 6.112812 -2.7215986 -7.431448
      vertex 4.045085 -2.9389257 -8.660254
      vertex 4.567727 -2.0336828 -8.660254
    endloop
  endfacet
  facet normal 0 -0.951553 -0.30748484
    outer loop
      vertex -0.9549141 -9.085409 -4.0673656
      vertex 1.0224419 -9.727892 -2.0791168
      vertex -1.0224419 -9.727892 -2.0791168
    endloop
  endfacet
  facet normal 0 -0.951553 -0.30748484
    outer loop
      vertex 1.0224419 -9.727892 -2.0791168
      vertex -0.9549141 -9.085409 -4.0673656
      vertex 0.9549141 -9.085409 -4.0673656
    endloop
  endfacet
  facet normal 0.085010506 0.19093733 -0.9779142
    outer loop
      vertex 1.545085 2.6761656 -9.510565
      vertex 0.32301044 0.9941244 -9.945218
      vertex 0.9549141 2.9389257 -9.510565
    endloop
  endfacet
  facet normal -0.4383799 -0.3947191 -0.8074775
    outer loop
      vertex -3.3456526 -3.715724 -8.660254
      vertex -5.4133797 -3.9330502 -7.431448
      vertex -4.045085 -2.9389257 -8.660254
    endloop
  endfacet
  facet normal -0.122646734 -0.57700765 -0.80747753
    outer loop
      vertex -0.6994314 -6.6546497 -7.431448
      vertex -2.067727 -6.3638096 -7.431448
      vertex -1.545085 -4.7552824 -8.660254
    endloop
  endfacet
  facet normal -0.23993316 -0.538899 -0.80747753
    outer loop
      vertex -2.067727 -6.3638096 -7.431448
      vertex -3.3456526 -5.794841 -7.431448
      vertex -1.545085 -4.7552824 -8.660254
    endloop
  endfacet
  facet normal -0.35386142 -0.20430176 -0.91271186
    outer loop
      vertex -2.5 -1.8163557 -9.510565
      vertex -4.567727 -2.0336828 -8.660254
      vertex -2.8230104 -1.2568846 -9.510565
    endloop
  endfacet
  facet normal -0.15532206 -0.13985306 -0.9779142
    outer loop
      vertex -0.6994314 -0.7767973 -9.945218
      vertex -2.067727 -2.296443 -9.510565
      vertex -0.8456526 -0.6144028 -9.945218
    endloop
  endfacet
  facet normal 0 -0.9945813 -0.103961706
    outer loop
      vertex -1.0224419 -9.727892 -2.0791168
      vertex 1.0452843 -9.945218 0
      vertex -1.0452843 -9.945218 0
    endloop
  endfacet
  facet normal 0 -0.9945813 -0.103961706
    outer loop
      vertex 1.0452843 -9.945218 0
      vertex -1.0224419 -9.727892 -2.0791168
      vertex 1.0224419 -9.727892 -2.0791168
    endloop
  endfacet
  facet normal 0.3870316 -0.8692869 -0.30748475
    outer loop
      vertex 4.8907375 -8.471006 -2.0791168
      vertex 2.8230104 -8.6883335 -4.0673656
      vertex 4.567727 -7.9115353 -4.0673656
    endloop
  endfacet
  facet normal -0.7071417 -0.63671327 -0.30748472
    outer loop
      vertex -6.545085 -7.2690525 -2.0791168
      vertex -7.3907375 -5.369685 -4.0673656
      vertex -6.112812 -6.788965 -4.0673656
    endloop
  endfacet
  facet normal -0.20678505 -0.9728473 -0.103962004
    outer loop
      vertex -1.0224419 -9.727892 -2.0791168
      vertex -3.09017 -9.510565 0
      vertex -3.0226421 -9.302736 -2.0791168
    endloop
  endfacet
  facet normal -0.19783875 -0.9307593 -0.30748487
    outer loop
      vertex -1.0224419 -9.727892 -2.0791168
      vertex -2.8230104 -8.6883335 -4.0673656
      vertex -0.9549141 -9.085409 -4.0673656
    endloop
  endfacet
  facet normal -0.8240691 0.47577658 -0.3074846
    outer loop
      vertex -8.345653 3.715724 -4.0673656
      vertex -8.9358225 3.9784842 -2.0791168
      vertex -7.3907375 5.369685 -4.0673656
    endloop
  endfacet
  facet normal -0.90498066 -0.29404598 -0.30748484
    outer loop
      vertex -8.345653 -3.715724 -4.0673656
      vertex -9.567727 -2.0336828 -2.0791168
      vertex -8.9358225 -1.8993673 -4.0673656
    endloop
  endfacet
  facet normal -0.645162 -0.3724847 -0.66709906
    outer loop
      vertex -5.4133797 -3.9330502 -7.431448
      vertex -6.545085 -4.7552824 -5.8778524
      vertex -6.112812 -2.7215986 -7.431448
    endloop
  endfacet
  facet normal 0.94634026 0.09946444 -0.30748484
    outer loop
      vertex 9.135454 0 -4.0673656
      vertex 8.9358225 1.8993673 -4.0673656
      vertex 9.567727 2.0336828 -2.0791168
    endloop
  endfacet
  facet normal 0.8613328 0.49729037 -0.10396204
    outer loop
      vertex 8.9358225 3.9784842 -2.0791168
      vertex 8.09017 5.8778524 0
      vertex 9.135454 4.0673656 0
    endloop
  endfacet
  facet normal 0.94590294 0.30734268 -0.103962064
    outer loop
      vertex 9.567727 2.0336828 -2.0791168
      vertex 8.9358225 3.9784842 -2.0791168
      vertex 9.135454 4.0673656 0
    endloop
  endfacet
  facet normal 0.7391177 0.66550505 -0.10396191
    outer loop
      vertex 8.09017 5.8778524 0
      vertex 6.545085 7.2690525 -2.0791168
      vertex 6.691305 7.431448 0
    endloop
  endfacet
  facet normal 0.19783898 0.9307593 -0.30748466
    outer loop
      vertex 2.8230104 8.6883335 -4.0673656
      vertex 1.0224419 9.727892 -2.0791168
      vertex 3.0226421 9.302736 -2.0791168
    endloop
  endfacet
  facet normal 0.50973374 0.7015882 -0.49794126
    outer loop
      vertex 6.112812 6.788965 -4.0673656
      vertex 4.045085 7.0062923 -5.8778524
      vertex 4.567727 7.9115353 -4.0673656
    endloop
  endfacet
  facet normal 0.3870316 0.8692869 -0.30748475
    outer loop
      vertex 4.567727 7.9115353 -4.0673656
      vertex 2.8230104 8.6883335 -4.0673656
      vertex 4.8907375 8.471006 -2.0791168
    endloop
  endfacet
  facet normal -0.5846002 0.8046331 -0.10396211
    outer loop
      vertex -4.8907375 8.471006 -2.0791168
      vertex -6.545085 7.2690525 -2.0791168
      vertex -5 8.660254 0
    endloop
  endfacet
  facet normal -0.8613328 0.49729037 -0.10396204
    outer loop
      vertex -8.9358225 3.9784842 -2.0791168
      vertex -9.135454 4.0673656 0
      vertex -8.09017 5.8778524 0
    endloop
  endfacet
  facet normal 0.7510266 0.43360543 -0.4979412
    outer loop
      vertex 8.345653 3.715724 -4.0673656
      vertex 6.545085 4.7552824 -5.8778524
      vertex 7.3907375 5.369685 -4.0673656
    endloop
  endfacet
  facet normal 0.7071418 0.63671315 -0.3074846
    outer loop
      vertex 7.3907375 5.369685 -4.0673656
      vertex 6.545085 7.2690525 -2.0791168
      vertex 7.9133797 5.749407 -2.0791168
    endloop
  endfacet
  facet normal 0.7510266 0.43360516 -0.49794137
    outer loop
      vertex 7.3907375 3.2905684 -5.8778524
      vertex 6.545085 4.7552824 -5.8778524
      vertex 8.345653 3.715724 -4.0673656
    endloop
  endfacet
  facet normal 0.8240691 0.47577658 -0.3074846
    outer loop
      vertex 8.9358225 3.9784842 -2.0791168
      vertex 7.3907375 5.369685 -4.0673656
      vertex 7.9133797 5.749407 -2.0791168
    endloop
  endfacet
  facet normal 0.7408883 0.0778708 -0.6670987
    outer loop
      vertex 8.09017 0 -5.8778524
      vertex 6.545085 1.3912001 -7.431448
      vertex 7.9133797 1.6820402 -5.8778524
    endloop
  endfacet
  facet normal 0.5610266 0.18228866 -0.8074776
    outer loop
      vertex 6.545085 1.3912001 -7.431448
      vertex 4.567727 2.0336828 -8.660254
      vertex 6.112812 2.7215986 -7.431448
    endloop
  endfacet
  facet normal 0.40636554 -0.042710926 -0.9127118
    outer loop
      vertex 4.8907375 -1.0395584 -8.660254
      vertex 3.0226421 -0.6424818 -9.510565
      vertex 5 0 -8.660254
    endloop
  endfacet
  facet normal 0.4383799 0.3947191 -0.8074775
    outer loop
      vertex 4.045085 2.9389257 -8.660254
      vertex 3.3456526 3.715724 -8.660254
      vertex 5.4133797 3.9330502 -7.431448
    endloop
  endfacet
  facet normal 0.043455034 -0.20443952 -0.97791415
    outer loop
      vertex 0.32301044 -3.0732412 -9.510565
      vertex 0.10926151 -1.0395584 -9.945218
      vertex 0.9549141 -2.9389257 -9.510565
    endloop
  endfacet
  facet normal 0.5610265 -0.18228848 -0.80747765
    outer loop
      vertex 6.545085 -1.3912001 -7.431448
      vertex 4.567727 -2.0336828 -8.660254
      vertex 4.8907375 -1.0395584 -8.660254
    endloop
  endfacet
  facet normal 0.74088806 -0.07787004 -0.66709906
    outer loop
      vertex 8.09017 0 -5.8778524
      vertex 6.545085 -1.3912001 -7.431448
      vertex 6.691305 0 -7.431448
    endloop
  endfacet
  facet normal 0.64516234 -0.37248445 -0.6670988
    outer loop
      vertex 6.545085 -4.7552824 -5.8778524
      vertex 6.112812 -2.7215986 -7.431448
      vertex 7.3907375 -3.2905684 -5.8778524
    endloop
  endfacet
  facet normal -0.34673384 0.47723764 -0.8074775
    outer loop
      vertex -3.3456526 3.715724 -8.660254
      vertex -4.477357 4.9726086 -7.431448
      vertex -3.3456526 5.794841 -7.431448
    endloop
  endfacet
  facet normal 0 0.7449692 -0.6670989
    outer loop
      vertex 0.6994314 6.6546497 -7.431448
      vertex -0.8456526 8.045851 -5.8778524
      vertex 0.8456526 8.045851 -5.8778524
    endloop
  endfacet
  facet normal 0 0.7449692 -0.6670989
    outer loop
      vertex -0.8456526 8.045851 -5.8778524
      vertex 0.6994314 6.6546497 -7.431448
      vertex -0.6994314 6.6546497 -7.431448
    endloop
  endfacet
  facet normal -0.5610265 -0.18228848 -0.80747765
    outer loop
      vertex -4.567727 -2.0336828 -8.660254
      vertex -6.545085 -1.3912001 -7.431448
      vertex -4.8907375 -1.0395584 -8.660254
    endloop
  endfacet
  facet normal -0.70850784 -0.23020826 -0.6670988
    outer loop
      vertex -6.112812 -2.7215986 -7.431448
      vertex -7.3907375 -3.2905684 -5.8778524
      vertex -6.545085 -1.3912001 -7.431448
    endloop
  endfacet
  facet normal -0.645162 0.3724847 -0.66709906
    outer loop
      vertex -6.112812 2.7215986 -7.431448
      vertex -6.545085 4.7552824 -5.8778524
      vertex -5.4133797 3.9330502 -7.431448
    endloop
  endfacet
  facet normal -0.3538614 0.20430192 -0.9127118
    outer loop
      vertex -2.5 1.8163557 -9.510565
      vertex -4.567727 2.0336828 -8.660254
      vertex -4.045085 2.9389257 -8.660254
    endloop
  endfacet
  facet normal -0.50973374 -0.7015882 -0.4979413
    outer loop
      vertex -4.045085 -7.0062923 -5.8778524
      vertex -6.112812 -6.788965 -4.0673656
      vertex -5.4133797 -6.012168 -5.8778524
    endloop
  endfacet
  facet normal -0.64446324 -0.58027726 -0.4979412
    outer loop
      vertex -6.112812 -6.788965 -4.0673656
      vertex -7.3907375 -5.369685 -4.0673656
      vertex -6.545085 -4.7552824 -5.8778524
    endloop
  endfacet
  facet normal -0.3870316 0.8692869 -0.30748475
    outer loop
      vertex -4.567727 7.9115353 -4.0673656
      vertex -4.8907375 8.471006 -2.0791168
      vertex -2.8230104 8.6883335 -4.0673656
    endloop
  endfacet
  facet normal -0.3527262 0.7922364 -0.49794152
    outer loop
      vertex -2.5 7.694208 -5.8778524
      vertex -4.045085 7.0062923 -5.8778524
      vertex -2.8230104 8.6883335 -4.0673656
    endloop
  endfacet
  facet normal -0.18030332 0.8482599 -0.49794155
    outer loop
      vertex -2.5 7.694208 -5.8778524
      vertex -2.8230104 8.6883335 -4.0673656
      vertex -0.8456526 8.045851 -5.8778524
    endloop
  endfacet
  facet normal 0.16619368 0.3732783 -0.91271186
    outer loop
      vertex 1.545085 2.6761656 -9.510565
      vertex 0.9549141 2.9389257 -9.510565
      vertex 1.545085 4.7552824 -8.660254
    endloop
  endfacet
  facet normal 0.43788195 0.6026927 -0.6670989
    outer loop
      vertex 5.4133797 6.012168 -5.8778524
      vertex 3.3456526 5.794841 -7.431448
      vertex 4.045085 7.0062923 -5.8778524
    endloop
  endfacet
  facet normal -0.3467336 0.47723767 -0.80747753
    outer loop
      vertex -2.5 4.330127 -8.660254
      vertex -3.3456526 3.715724 -8.660254
      vertex -3.3456526 5.794841 -7.431448
    endloop
  endfacet
  facet normal -0.18030304 0.84826016 -0.49794132
    outer loop
      vertex -0.8456526 8.045851 -5.8778524
      vertex -2.8230104 8.6883335 -4.0673656
      vertex -0.9549141 9.085409 -4.0673656
    endloop
  endfacet
  facet normal 0.16619422 0.37327826 -0.9127118
    outer loop
      vertex 2.5 4.330127 -8.660254
      vertex 1.545085 2.6761656 -9.510565
      vertex 1.545085 4.7552824 -8.660254
    endloop
  endfacet
  facet normal 0.3467336 0.47723767 -0.80747753
    outer loop
      vertex 3.3456526 3.715724 -8.660254
      vertex 2.5 4.330127 -8.660254
      vertex 3.3456526 5.794841 -7.431448
    endloop
  endfacet
  facet normal 0.9891328 -0.103961706 -0.1039625
    outer loop
      vertex 10 0 0
      vertex 9.567727 -2.0336828 -2.0791168
      vertex 9.781475 0 -2.0791168
    endloop
  endfacet
  facet normal 0.8247664 0.26798266 -0.49794143
    outer loop
      vertex 7.9133797 1.6820402 -5.8778524
      vertex 7.3907375 3.2905684 -5.8778524
      vertex 8.9358225 1.8993673 -4.0673656
    endloop
  endfacet
  facet normal 0.8247664 -0.26798266 -0.49794143
    outer loop
      vertex 8.9358225 -1.8993673 -4.0673656
      vertex 7.3907375 -3.2905684 -5.8778524
      vertex 7.9133797 -1.6820402 -5.8778524
    endloop
  endfacet
  facet normal 0.94634044 0.09946406 -0.30748448
    outer loop
      vertex 9.781475 0 -2.0791168
      vertex 9.135454 0 -4.0673656
      vertex 9.567727 2.0336828 -2.0791168
    endloop
  endfacet
  facet normal 0.94590294 -0.30734268 -0.103962064
    outer loop
      vertex 9.135454 -4.0673656 0
      vertex 8.9358225 -3.9784842 -2.0791168
      vertex 9.567727 -2.0336828 -2.0791168
    endloop
  endfacet
  facet normal 0.8613328 -0.49729037 -0.10396204
    outer loop
      vertex 9.135454 -4.0673656 0
      vertex 8.09017 -5.8778524 0
      vertex 8.9358225 -3.9784842 -2.0791168
    endloop
  endfacet
  facet normal 0.5846003 -0.8046331 -0.103962004
    outer loop
      vertex 6.691305 -7.431448 0
      vertex 5 -8.660254 0
      vertex 6.545085 -7.2690525 -2.0791168
    endloop
  endfacet
  facet normal 0.7391177 -0.66550505 -0.10396191
    outer loop
      vertex 6.691305 -7.431448 0
      vertex 6.545085 -7.2690525 -2.0791168
      vertex 8.09017 -5.8778524 0
    endloop
  endfacet
  facet normal 0.7071417 -0.63671327 -0.30748472
    outer loop
      vertex 6.545085 -7.2690525 -2.0791168
      vertex 6.112812 -6.788965 -4.0673656
      vertex 7.3907375 -5.369685 -4.0673656
    endloop
  endfacet
  facet normal 0.64446324 -0.58027726 -0.4979412
    outer loop
      vertex 7.3907375 -5.369685 -4.0673656
      vertex 6.112812 -6.788965 -4.0673656
      vertex 6.545085 -4.7552824 -5.8778524
    endloop
  endfacet
  facet normal 0.35272652 -0.7922364 -0.4979413
    outer loop
      vertex 4.567727 -7.9115353 -4.0673656
      vertex 2.8230104 -8.6883335 -4.0673656
      vertex 4.045085 -7.0062923 -5.8778524
    endloop
  endfacet
  facet normal 0.19783875 -0.9307593 -0.30748487
    outer loop
      vertex 1.0224419 -9.727892 -2.0791168
      vertex 0.9549141 -9.085409 -4.0673656
      vertex 2.8230104 -8.6883335 -4.0673656
    endloop
  endfacet
  facet normal 0.12264631 -0.57700753 -0.80747765
    outer loop
      vertex 0.6994314 -6.6546497 -7.431448
      vertex 0.52264214 -4.9726086 -8.660254
      vertex 1.545085 -4.7552824 -8.660254
    endloop
  endfacet
  facet normal -0.30300614 -0.68056333 -0.6670988
    outer loop
      vertex -2.5 -7.694208 -5.8778524
      vertex -4.045085 -7.0062923 -5.8778524
      vertex -3.3456526 -5.794841 -7.431448
    endloop
  endfacet
  facet normal 0 -0.58989817 -0.80747765
    outer loop
      vertex 0.6994314 -6.6546497 -7.431448
      vertex -0.52264214 -4.9726086 -8.660254
      vertex 0.52264214 -4.9726086 -8.660254
    endloop
  endfacet
  facet normal 0 -0.58989817 -0.80747765
    outer loop
      vertex -0.52264214 -4.9726086 -8.660254
      vertex 0.6994314 -6.6546497 -7.431448
      vertex -0.6994314 -6.6546497 -7.431448
    endloop
  endfacet
  facet normal -0.1548879 -0.72868985 -0.6670988
    outer loop
      vertex -0.8456526 -8.045851 -5.8778524
      vertex -2.5 -7.694208 -5.8778524
      vertex -2.067727 -6.3638096 -7.431448
    endloop
  endfacet
  facet normal -0.5108669 -0.29494935 -0.8074775
    outer loop
      vertex -5.4133797 -3.9330502 -7.431448
      vertex -6.112812 -2.7215986 -7.431448
      vertex -4.045085 -2.9389257 -8.660254
    endloop
  endfacet
  facet normal -0.30365187 -0.2734094 -0.9127118
    outer loop
      vertex -3.3456526 -3.715724 -8.660254
      vertex -4.045085 -2.9389257 -8.660254
      vertex -2.5 -1.8163557 -9.510565
    endloop
  endfacet
  facet normal -0.5846002 -0.8046331 -0.10396211
    outer loop
      vertex -5 -8.660254 0
      vertex -6.545085 -7.2690525 -2.0791168
      vertex -4.8907375 -8.471006 -2.0791168
    endloop
  endfacet
  facet normal -0.7391177 -0.66550505 -0.10396191
    outer loop
      vertex -6.691305 -7.431448 0
      vertex -8.09017 -5.8778524 0
      vertex -6.545085 -7.2690525 -2.0791168
    endloop
  endfacet
  facet normal -0.739118 -0.66550463 -0.103962414
    outer loop
      vertex -6.545085 -7.2690525 -2.0791168
      vertex -8.09017 -5.8778524 0
      vertex -7.9133797 -5.749407 -2.0791168
    endloop
  endfacet
  facet normal -0.5593089 -0.76982254 -0.3074847
    outer loop
      vertex -4.8907375 -8.471006 -2.0791168
      vertex -6.112812 -6.788965 -4.0673656
      vertex -4.567727 -7.9115353 -4.0673656
    endloop
  endfacet
  facet normal -0.50973374 -0.7015882 -0.49794126
    outer loop
      vertex -4.567727 -7.9115353 -4.0673656
      vertex -6.112812 -6.788965 -4.0673656
      vertex -4.045085 -7.0062923 -5.8778524
    endloop
  endfacet
  facet normal -0.5846003 -0.8046331 -0.103962004
    outer loop
      vertex -5 -8.660254 0
      vertex -6.691305 -7.431448 0
      vertex -6.545085 -7.2690525 -2.0791168
    endloop
  endfacet
  facet normal -0.94590306 0.30734238 -0.103961766
    outer loop
      vertex -9.567727 2.0336828 -2.0791168
      vertex -9.781475 2.0791168 0
      vertex -9.135454 4.0673656 0
    endloop
  endfacet
  facet normal -0.9891328 -0.1039625 -0.10396173
    outer loop
      vertex -9.781475 -2.0791168 0
      vertex -10 0 0
      vertex -9.567727 -2.0336828 -2.0791168
    endloop
  endfacet
  facet normal -0.5593089 0.76982254 -0.3074847
    outer loop
      vertex -4.567727 7.9115353 -4.0673656
      vertex -6.112812 6.788965 -4.0673656
      vertex -4.8907375 8.471006 -2.0791168
    endloop
  endfacet
  facet normal -0.90498066 0.29404598 -0.30748484
    outer loop
      vertex -8.9358225 1.8993673 -4.0673656
      vertex -9.567727 2.0336828 -2.0791168
      vertex -8.345653 3.715724 -4.0673656
    endloop
  endfacet
  facet normal -0.8613326 -0.49729067 -0.103962414
    outer loop
      vertex -8.09017 -5.8778524 0
      vertex -8.9358225 -3.9784842 -2.0791168
      vertex -7.9133797 -5.749407 -2.0791168
    endloop
  endfacet
  facet normal -0.8247664 -0.26798278 -0.49794134
    outer loop
      vertex -8.345653 -3.715724 -4.0673656
      vertex -8.9358225 -1.8993673 -4.0673656
      vertex -7.3907375 -3.2905684 -5.8778524
    endloop
  endfacet
  facet normal 0.86245996 -0.09064855 -0.49794143
    outer loop
      vertex 8.9358225 -1.8993673 -4.0673656
      vertex 7.9133797 -1.6820402 -5.8778524
      vertex 8.09017 0 -5.8778524
    endloop
  endfacet
  facet normal 0.19783875 0.9307593 -0.30748487
    outer loop
      vertex 2.8230104 8.6883335 -4.0673656
      vertex 0.9549141 9.085409 -4.0673656
      vertex 1.0224419 9.727892 -2.0791168
    endloop
  endfacet
  facet normal 0.5846003 0.8046331 -0.103962004
    outer loop
      vertex 6.545085 7.2690525 -2.0791168
      vertex 5 8.660254 0
      vertex 6.691305 7.431448 0
    endloop
  endfacet
  facet normal 0.38703158 0.8692869 -0.3074847
    outer loop
      vertex 4.8907375 8.471006 -2.0791168
      vertex 2.8230104 8.6883335 -4.0673656
      vertex 3.0226421 9.302736 -2.0791168
    endloop
  endfacet
  facet normal 0.35272652 0.7922364 -0.4979413
    outer loop
      vertex 4.045085 7.0062923 -5.8778524
      vertex 2.8230104 8.6883335 -4.0673656
      vertex 4.567727 7.9115353 -4.0673656
    endloop
  endfacet
  facet normal 0.8240691 0.47577658 -0.3074846
    outer loop
      vertex 8.345653 3.715724 -4.0673656
      vertex 7.3907375 5.369685 -4.0673656
      vertex 8.9358225 3.9784842 -2.0791168
    endloop
  endfacet
  facet normal 0.50973374 0.7015882 -0.4979413
    outer loop
      vertex 5.4133797 6.012168 -5.8778524
      vertex 4.045085 7.0062923 -5.8778524
      vertex 6.112812 6.788965 -4.0673656
    endloop
  endfacet
  facet normal 0 0.9945813 -0.103961706
    outer loop
      vertex 1.0224419 9.727892 -2.0791168
      vertex -1.0452843 9.945218 0
      vertex 1.0452843 9.945218 0
    endloop
  endfacet
  facet normal 0 0.9945813 -0.103961706
    outer loop
      vertex -1.0452843 9.945218 0
      vertex 1.0224419 9.727892 -2.0791168
      vertex -1.0224419 9.727892 -2.0791168
    endloop
  endfacet
  facet normal 0.90498066 0.2940462 -0.30748466
    outer loop
      vertex 9.567727 2.0336828 -2.0791168
      vertex 8.345653 3.715724 -4.0673656
      vertex 8.9358225 3.9784842 -2.0791168
    endloop
  endfacet
  facet normal 0.94634026 -0.09946444 -0.30748484
    outer loop
      vertex 9.567727 -2.0336828 -2.0791168
      vertex 8.9358225 -1.8993673 -4.0673656
      vertex 9.135454 0 -4.0673656
    endloop
  endfacet
  facet normal 0.40636554 0.042710926 -0.9127118
    outer loop
      vertex 5 0 -8.660254
      vertex 3.0226421 0.6424818 -9.510565
      vertex 4.8907375 1.0395584 -8.660254
    endloop
  endfacet
  facet normal 0.5610265 0.18228848 -0.80747765
    outer loop
      vertex 4.8907375 1.0395584 -8.660254
      vertex 4.567727 2.0336828 -8.660254
      vertex 6.545085 1.3912001 -7.431448
    endloop
  endfacet
  facet normal 0.7408883 -0.0778708 -0.6670987
    outer loop
      vertex 7.9133797 -1.6820402 -5.8778524
      vertex 6.545085 -1.3912001 -7.431448
      vertex 8.09017 0 -5.8778524
    endloop
  endfacet
  facet normal 0.5866666 0.06166141 -0.80747765
    outer loop
      vertex 5 0 -8.660254
      vertex 4.8907375 1.0395584 -8.660254
      vertex 6.545085 1.3912001 -7.431448
    endloop
  endfacet
  facet normal 0.30365187 -0.2734094 -0.9127118
    outer loop
      vertex 3.3456526 -3.715724 -8.660254
      vertex 2.5 -1.8163557 -9.510565
      vertex 4.045085 -2.9389257 -8.660254
    endloop
  endfacet
  facet normal 0.30365172 -0.2734095 -0.91271186
    outer loop
      vertex 3.3456526 -3.715724 -8.660254
      vertex 2.067727 -2.296443 -9.510565
      vertex 2.5 -1.8163557 -9.510565
    endloop
  endfacet
  facet normal 0.5536198 -0.4984816 -0.66709906
    outer loop
      vertex 6.545085 -4.7552824 -5.8778524
      vertex 4.477357 -4.9726086 -7.431448
      vertex 5.4133797 -3.9330502 -7.431448
    endloop
  endfacet
  facet normal 0.4383799 -0.39471912 -0.8074775
    outer loop
      vertex 4.477357 -4.9726086 -7.431448
      vertex 3.3456526 -3.715724 -8.660254
      vertex 5.4133797 -3.9330502 -7.431448
    endloop
  endfacet
  facet normal 0.70850784 -0.23020826 -0.6670988
    outer loop
      vertex 7.3907375 -3.2905684 -5.8778524
      vertex 6.112812 -2.7215986 -7.431448
      vertex 6.545085 -1.3912001 -7.431448
    endloop
  endfacet
  facet normal 0.3538614 -0.20430192 -0.9127118
    outer loop
      vertex 4.045085 -2.9389257 -8.660254
      vertex 2.5 -1.8163557 -9.510565
      vertex 4.567727 -2.0336828 -8.660254
    endloop
  endfacet
  facet normal 0.8247664 -0.26798278 -0.49794134
    outer loop
      vertex 8.345653 -3.715724 -4.0673656
      vertex 7.3907375 -3.2905684 -5.8778524
      vertex 8.9358225 -1.8993673 -4.0673656
    endloop
  endfacet
  facet normal 0.7510266 -0.43360516 -0.49794137
    outer loop
      vertex 8.345653 -3.715724 -4.0673656
      vertex 6.545085 -4.7552824 -5.8778524
      vertex 7.3907375 -3.2905684 -5.8778524
    endloop
  endfacet
  facet normal -0.30365172 0.2734095 -0.91271186
    outer loop
      vertex -2.5 1.8163557 -9.510565
      vertex -3.3456526 3.715724 -8.660254
      vertex -2.067727 2.296443 -9.510565
    endloop
  endfacet
  facet normal -0.38860536 0.12626562 -0.9127118
    outer loop
      vertex -3.0226421 0.6424818 -9.510565
      vertex -4.567727 2.0336828 -8.660254
      vertex -2.8230104 1.2568846 -9.510565
    endloop
  endfacet
  facet normal -0.5108669 0.29494935 -0.8074775
    outer loop
      vertex -4.045085 2.9389257 -8.660254
      vertex -6.112812 2.7215986 -7.431448
      vertex -5.4133797 3.9330502 -7.431448
    endloop
  endfacet
  facet normal -0.5536198 0.4984816 -0.66709906
    outer loop
      vertex -5.4133797 3.9330502 -7.431448
      vertex -6.545085 4.7552824 -5.8778524
      vertex -4.477357 4.9726086 -7.431448
    endloop
  endfacet
  facet normal -0.4383799 0.3947191 -0.8074775
    outer loop
      vertex -4.045085 2.9389257 -8.660254
      vertex -5.4133797 3.9330502 -7.431448
      vertex -3.3456526 3.715724 -8.660254
    endloop
  endfacet
  facet normal -0.30365187 0.2734094 -0.9127118
    outer loop
      vertex -2.5 1.8163557 -9.510565
      vertex -4.045085 2.9389257 -8.660254
      vertex -3.3456526 3.715724 -8.660254
    endloop
  endfacet
  facet normal -0.94634026 -0.09946444 -0.30748484
    outer loop
      vertex -8.9358225 -1.8993673 -4.0673656
      vertex -9.567727 -2.0336828 -2.0791168
      vertex -9.135454 0 -4.0673656
    endloop
  endfacet
  facet normal -0.90498066 0.2940462 -0.30748466
    outer loop
      vertex -8.345653 3.715724 -4.0673656
      vertex -9.567727 2.0336828 -2.0791168
      vertex -8.9358225 3.9784842 -2.0791168
    endloop
  endfacet
  facet normal -0.4383799 -0.39471912 -0.8074775
    outer loop
      vertex -4.477357 -4.9726086 -7.431448
      vertex -5.4133797 -3.9330502 -7.431448
      vertex -3.3456526 -3.715724 -8.660254
    endloop
  endfacet
  facet normal -0.64446306 -0.5802774 -0.49794132
    outer loop
      vertex -6.112812 -6.788965 -4.0673656
      vertex -6.545085 -4.7552824 -5.8778524
      vertex -5.4133797 -6.012168 -5.8778524
    endloop
  endfacet
  facet normal -0.35272652 0.7922364 -0.4979413
    outer loop
      vertex -4.045085 7.0062923 -5.8778524
      vertex -4.567727 7.9115353 -4.0673656
      vertex -2.8230104 8.6883335 -4.0673656
    endloop
  endfacet
  facet normal -0.8240691 0.47577658 -0.3074846
    outer loop
      vertex -7.3907375 5.369685 -4.0673656
      vertex -8.9358225 3.9784842 -2.0791168
      vertex -7.9133797 5.749407 -2.0791168
    endloop
  endfacet
  facet normal -0.084953256 0.39967507 -0.9127118
    outer loop
      vertex -0.32301044 3.0732412 -9.510565
      vertex -1.545085 4.7552824 -8.660254
      vertex -0.52264214 4.9726086 -8.660254
    endloop
  endfacet
  facet normal 0.085010506 -0.19093733 -0.9779142
    outer loop
      vertex 0.9549141 -2.9389257 -9.510565
      vertex 0.32301044 -0.9941244 -9.945218
      vertex 1.545085 -2.6761656 -9.510565
    endloop
  endfacet
  facet normal 0.24017143 0.3305675 -0.9127118
    outer loop
      vertex 3.3456526 3.715724 -8.660254
      vertex 1.545085 2.6761656 -9.510565
      vertex 2.5 4.330127 -8.660254
    endloop
  endfacet
  facet normal 0.43788213 0.60269237 -0.66709906
    outer loop
      vertex 4.477357 4.9726086 -7.431448
      vertex 3.3456526 5.794841 -7.431448
      vertex 5.4133797 6.012168 -5.8778524
    endloop
  endfacet
  facet normal -0.043455034 0.20443952 -0.97791415
    outer loop
      vertex -0.10926151 1.0395584 -9.945218
      vertex -0.9549141 2.9389257 -9.510565
      vertex -0.32301044 3.0732412 -9.510565
    endloop
  endfacet
  facet normal 0.9891328 0.103961706 -0.1039625
    outer loop
      vertex 9.781475 0 -2.0791168
      vertex 9.567727 2.0336828 -2.0791168
      vertex 10 0 0
    endloop
  endfacet
  facet normal 0.9891328 0.1039625 -0.10396173
    outer loop
      vertex 10 0 0
      vertex 9.567727 2.0336828 -2.0791168
      vertex 9.781475 2.0791168 0
    endloop
  endfacet
  facet normal 0.8240691 -0.47577658 -0.3074846
    outer loop
      vertex 7.9133797 -5.749407 -2.0791168
      vertex 7.3907375 -5.369685 -4.0673656
      vertex 8.9358225 -3.9784842 -2.0791168
    endloop
  endfacet
  facet normal 0.8613326 -0.49729067 -0.103962414
    outer loop
      vertex 8.09017 -5.8778524 0
      vertex 7.9133797 -5.749407 -2.0791168
      vertex 8.9358225 -3.9784842 -2.0791168
    endloop
  endfacet
  facet normal 0.20678505 -0.9728473 -0.103962004
    outer loop
      vertex 3.09017 -9.510565 0
      vertex 1.0224419 -9.727892 -2.0791168
      vertex 3.0226421 -9.302736 -2.0791168
    endloop
  endfacet
  facet normal 0.19783898 -0.9307593 -0.30748466
    outer loop
      vertex 3.0226421 -9.302736 -2.0791168
      vertex 1.0224419 -9.727892 -2.0791168
      vertex 2.8230104 -8.6883335 -4.0673656
    endloop
  endfacet
  facet normal 0.50973374 -0.7015882 -0.49794126
    outer loop
      vertex 4.567727 -7.9115353 -4.0673656
      vertex 4.045085 -7.0062923 -5.8778524
      vertex 6.112812 -6.788965 -4.0673656
    endloop
  endfacet
  facet normal 0.5593089 -0.76982254 -0.3074847
    outer loop
      vertex 4.8907375 -8.471006 -2.0791168
      vertex 4.567727 -7.9115353 -4.0673656
      vertex 6.112812 -6.788965 -4.0673656
    endloop
  endfacet
  facet normal 0.30300614 -0.68056333 -0.6670988
    outer loop
      vertex 4.045085 -7.0062923 -5.8778524
      vertex 2.5 -7.694208 -5.8778524
      vertex 3.3456526 -5.794841 -7.431448
    endloop
  endfacet
  facet normal 0.1548879 -0.72868985 -0.6670988
    outer loop
      vertex 2.5 -7.694208 -5.8778524
      vertex 0.8456526 -8.045851 -5.8778524
      vertex 2.067727 -6.3638096 -7.431448
    endloop
  endfacet
  facet normal -0.12264631 -0.57700753 -0.80747765
    outer loop
      vertex -0.6994314 -6.6546497 -7.431448
      vertex -1.545085 -4.7552824 -8.660254
      vertex -0.52264214 -4.9726086 -8.660254
    endloop
  endfacet
  facet normal -0.15488777 -0.7286898 -0.6670989
    outer loop
      vertex -0.8456526 -8.045851 -5.8778524
      vertex -2.067727 -6.3638096 -7.431448
      vertex -0.6994314 -6.6546497 -7.431448
    endloop
  endfacet
  facet normal -0.30300614 -0.68056333 -0.6670988
    outer loop
      vertex -2.5 -7.694208 -5.8778524
      vertex -3.3456526 -5.794841 -7.431448
      vertex -2.067727 -6.3638096 -7.431448
    endloop
  endfacet
  facet normal -0.3870316 -0.8692869 -0.30748475
    outer loop
      vertex -2.8230104 -8.6883335 -4.0673656
      vertex -4.8907375 -8.471006 -2.0791168
      vertex -4.567727 -7.9115353 -4.0673656
    endloop
  endfacet
  facet normal -0.35272652 -0.7922364 -0.4979413
    outer loop
      vertex -2.8230104 -8.6883335 -4.0673656
      vertex -4.567727 -7.9115353 -4.0673656
      vertex -4.045085 -7.0062923 -5.8778524
    endloop
  endfacet
  facet normal -0.51086694 -0.29494908 -0.8074776
    outer loop
      vertex -4.045085 -2.9389257 -8.660254
      vertex -6.112812 -2.7215986 -7.431448
      vertex -4.567727 -2.0336828 -8.660254
    endloop
  endfacet
  facet normal -0.58666694 -0.061660837 -0.8074775
    outer loop
      vertex -6.545085 -1.3912001 -7.431448
      vertex -6.691305 0 -7.431448
      vertex -5 0 -8.660254
    endloop
  endfacet
  facet normal -0.16619422 -0.37327826 -0.9127118
    outer loop
      vertex -1.545085 -4.7552824 -8.660254
      vertex -2.5 -4.330127 -8.660254
      vertex -1.545085 -2.6761656 -9.510565
    endloop
  endfacet
  facet normal -0.2078618 0.021847224 -0.9779142
    outer loop
      vertex -1.0452843 0 -9.945218
      vertex -3.09017 0 -9.510565
      vertex -3.0226421 0.6424818 -9.510565
    endloop
  endfacet
  facet normal -0.20678481 -0.97284734 -0.103961766
    outer loop
      vertex -1.0452843 -9.945218 0
      vertex -3.09017 -9.510565 0
      vertex -1.0224419 -9.727892 -2.0791168
    endloop
  endfacet
  facet normal -0.94634044 -0.09946406 -0.30748448
    outer loop
      vertex -9.567727 -2.0336828 -2.0791168
      vertex -9.781475 0 -2.0791168
      vertex -9.135454 0 -4.0673656
    endloop
  endfacet
  facet normal -0.9891328 0.1039625 -0.10396173
    outer loop
      vertex -9.567727 2.0336828 -2.0791168
      vertex -10 0 0
      vertex -9.781475 2.0791168 0
    endloop
  endfacet
  facet normal -0.8613328 -0.49729037 -0.10396204
    outer loop
      vertex -8.09017 -5.8778524 0
      vertex -9.135454 -4.0673656 0
      vertex -8.9358225 -3.9784842 -2.0791168
    endloop
  endfacet
  facet normal -0.94590306 -0.30734238 -0.103961766
    outer loop
      vertex -9.135454 -4.0673656 0
      vertex -9.781475 -2.0791168 0
      vertex -9.567727 -2.0336828 -2.0791168
    endloop
  endfacet
  facet normal -0.7071418 0.63671315 -0.3074846
    outer loop
      vertex -7.3907375 5.369685 -4.0673656
      vertex -7.9133797 5.749407 -2.0791168
      vertex -6.545085 7.2690525 -2.0791168
    endloop
  endfacet
  facet normal -0.8613326 0.49729067 -0.103962414
    outer loop
      vertex -7.9133797 5.749407 -2.0791168
      vertex -8.9358225 3.9784842 -2.0791168
      vertex -8.09017 5.8778524 0
    endloop
  endfacet
  facet normal -0.739118 0.66550463 -0.103962414
    outer loop
      vertex -7.9133797 5.749407 -2.0791168
      vertex -8.09017 5.8778524 0
      vertex -6.545085 7.2690525 -2.0791168
    endloop
  endfacet
  facet normal -0.5593089 0.76982254 -0.3074847
    outer loop
      vertex -6.112812 6.788965 -4.0673656
      vertex -6.545085 7.2690525 -2.0791168
      vertex -4.8907375 8.471006 -2.0791168
    endloop
  endfacet
  facet normal 0.86246014 -0.09064827 -0.49794123
    outer loop
      vertex 8.9358225 -1.8993673 -4.0673656
      vertex 8.09017 0 -5.8778524
      vertex 9.135454 0 -4.0673656
    endloop
  endfacet
  facet normal 0.90498066 0.29404598 -0.30748484
    outer loop
      vertex 8.9358225 1.8993673 -4.0673656
      vertex 8.345653 3.715724 -4.0673656
      vertex 9.567727 2.0336828 -2.0791168
    endloop
  endfacet
  facet normal 0.40453273 0.90859514 -0.103962064
    outer loop
      vertex 4.8907375 8.471006 -2.0791168
      vertex 3.0226421 9.302736 -2.0791168
      vertex 5 8.660254 0
    endloop
  endfacet
  facet normal 0.5846002 0.8046331 -0.10396211
    outer loop
      vertex 6.545085 7.2690525 -2.0791168
      vertex 4.8907375 8.471006 -2.0791168
      vertex 5 8.660254 0
    endloop
  endfacet
  facet normal 0.4045327 0.9085952 -0.10396202
    outer loop
      vertex 5 8.660254 0
      vertex 3.0226421 9.302736 -2.0791168
      vertex 3.09017 9.510565 0
    endloop
  endfacet
  facet normal 0 0.86721075 -0.49794132
    outer loop
      vertex 0.8456526 8.045851 -5.8778524
      vertex -0.9549141 9.085409 -4.0673656
      vertex 0.9549141 9.085409 -4.0673656
    endloop
  endfacet
  facet normal 0 0.86721075 -0.49794132
    outer loop
      vertex -0.9549141 9.085409 -4.0673656
      vertex 0.8456526 8.045851 -5.8778524
      vertex -0.8456526 8.045851 -5.8778524
    endloop
  endfacet
  facet normal 0.3527262 0.7922364 -0.49794152
    outer loop
      vertex 4.045085 7.0062923 -5.8778524
      vertex 2.5 7.694208 -5.8778524
      vertex 2.8230104 8.6883335 -4.0673656
    endloop
  endfacet
  facet normal -0.19783875 0.9307593 -0.30748487
    outer loop
      vertex -0.9549141 9.085409 -4.0673656
      vertex -2.8230104 8.6883335 -4.0673656
      vertex -1.0224419 9.727892 -2.0791168
    endloop
  endfacet
  facet normal 0.18030332 0.8482599 -0.49794155
    outer loop
      vertex 2.5 7.694208 -5.8778524
      vertex 0.8456526 8.045851 -5.8778524
      vertex 2.8230104 8.6883335 -4.0673656
    endloop
  endfacet
  facet normal 0.64446324 0.58027726 -0.4979412
    outer loop
      vertex 6.545085 4.7552824 -5.8778524
      vertex 6.112812 6.788965 -4.0673656
      vertex 7.3907375 5.369685 -4.0673656
    endloop
  endfacet
  facet normal 0.7071417 0.63671327 -0.30748472
    outer loop
      vertex 7.3907375 5.369685 -4.0673656
      vertex 6.112812 6.788965 -4.0673656
      vertex 6.545085 7.2690525 -2.0791168
    endloop
  endfacet
  facet normal 0.5536198 0.49848172 -0.667099
    outer loop
      vertex 6.545085 4.7552824 -5.8778524
      vertex 4.477357 4.9726086 -7.431448
      vertex 5.4133797 6.012168 -5.8778524
    endloop
  endfacet
  facet normal 0.23993327 0.5388989 -0.8074776
    outer loop
      vertex 2.5 4.330127 -8.660254
      vertex 1.545085 4.7552824 -8.660254
      vertex 3.3456526 5.794841 -7.431448
    endloop
  endfacet
  facet normal 0.64516234 0.37248445 -0.6670988
    outer loop
      vertex 7.3907375 3.2905684 -5.8778524
      vertex 6.112812 2.7215986 -7.431448
      vertex 6.545085 4.7552824 -5.8778524
    endloop
  endfacet
  facet normal 0.58666694 0.061660837 -0.8074775
    outer loop
      vertex 6.691305 0 -7.431448
      vertex 5 0 -8.660254
      vertex 6.545085 1.3912001 -7.431448
    endloop
  endfacet
  facet normal 0.58666694 -0.061660837 -0.8074775
    outer loop
      vertex 6.545085 -1.3912001 -7.431448
      vertex 5 0 -8.660254
      vertex 6.691305 0 -7.431448
    endloop
  endfacet
  facet normal 0.5866666 -0.06166141 -0.80747765
    outer loop
      vertex 6.545085 -1.3912001 -7.431448
      vertex 4.8907375 -1.0395584 -8.660254
      vertex 5 0 -8.660254
    endloop
  endfacet
  facet normal 0.5610266 -0.18228866 -0.8074776
    outer loop
      vertex 6.112812 -2.7215986 -7.431448
      vertex 4.567727 -2.0336828 -8.660254
      vertex 6.545085 -1.3912001 -7.431448
    endloop
  endfacet
  facet normal 0.20786168 -0.021847628 -0.9779142
    outer loop
      vertex 3.0226421 -0.6424818 -9.510565
      vertex 1.0224419 -0.21732616 -9.945218
      vertex 1.0452843 0 -9.945218
    endloop
  endfacet
  facet normal -0.043455195 -0.20443945 -0.9779142
    outer loop
      vertex -0.10926151 -1.0395584 -9.945218
      vertex -0.9549141 -2.9389257 -9.510565
      vertex -0.32301044 -0.9941244 -9.945218
    endloop
  endfacet
  facet normal 0.38860545 -0.12626551 -0.9127118
    outer loop
      vertex 4.567727 -2.0336828 -8.660254
      vertex 3.0226421 -0.6424818 -9.510565
      vertex 4.8907375 -1.0395584 -8.660254
    endloop
  endfacet
  facet normal 0.16619422 -0.37327826 -0.9127118
    outer loop
      vertex 2.5 -4.330127 -8.660254
      vertex 1.545085 -4.7552824 -8.660254
      vertex 1.545085 -2.6761656 -9.510565
    endloop
  endfacet
  facet normal -0.1228513 -0.16908993 -0.9779142
    outer loop
      vertex -1.545085 -2.6761656 -9.510565
      vertex -2.067727 -2.296443 -9.510565
      vertex -0.52264214 -0.9052429 -9.945218
    endloop
  endfacet
  facet normal 0.4383799 -0.3947191 -0.8074775
    outer loop
      vertex 5.4133797 -3.9330502 -7.431448
      vertex 3.3456526 -3.715724 -8.660254
      vertex 4.045085 -2.9389257 -8.660254
    endloop
  endfacet
  facet normal 0.43788195 -0.6026927 -0.6670989
    outer loop
      vertex 4.045085 -7.0062923 -5.8778524
      vertex 3.3456526 -5.794841 -7.431448
      vertex 5.4133797 -6.012168 -5.8778524
    endloop
  endfacet
  facet normal 0.5108669 -0.29494935 -0.8074775
    outer loop
      vertex 5.4133797 -3.9330502 -7.431448
      vertex 4.045085 -2.9389257 -8.660254
      vertex 6.112812 -2.7215986 -7.431448
    endloop
  endfacet
  facet normal 0.645162 -0.3724847 -0.66709906
    outer loop
      vertex 6.545085 -4.7552824 -5.8778524
      vertex 5.4133797 -3.9330502 -7.431448
      vertex 6.112812 -2.7215986 -7.431448
    endloop
  endfacet
  facet normal 0.18100524 0.10450331 -0.9779142
    outer loop
      vertex 2.8230104 1.2568846 -9.510565
      vertex 0.8456526 0.6144028 -9.945218
      vertex 2.5 1.8163557 -9.510565
    endloop
  endfacet
  facet normal 0.08495364 0.3996748 -0.91271186
    outer loop
      vertex 0.9549141 2.9389257 -9.510565
      vertex 0.32301044 3.0732412 -9.510565
      vertex 1.545085 4.7552824 -8.660254
    endloop
  endfacet
  facet normal -0.40636554 -0.042710874 -0.9127118
    outer loop
      vertex -3.0226421 -0.6424818 -9.510565
      vertex -5 0 -8.660254
      vertex -3.09017 0 -9.510565
    endloop
  endfacet
  facet normal 0.15532227 -0.13985291 -0.9779142
    outer loop
      vertex 2.067727 -2.296443 -9.510565
      vertex 0.8456526 -0.6144028 -9.945218
      vertex 2.5 -1.8163557 -9.510565
    endloop
  endfacet
  facet normal -0.5610266 0.18228866 -0.8074776
    outer loop
      vertex -4.567727 2.0336828 -8.660254
      vertex -6.545085 1.3912001 -7.431448
      vertex -6.112812 2.7215986 -7.431448
    endloop
  endfacet
  facet normal -0.15532206 0.13985306 -0.9779142
    outer loop
      vertex -0.8456526 0.6144028 -9.945218
      vertex -2.067727 2.296443 -9.510565
      vertex -0.6994314 0.7767973 -9.945218
    endloop
  endfacet
  facet normal -0.35386142 0.20430176 -0.91271186
    outer loop
      vertex -2.8230104 1.2568846 -9.510565
      vertex -4.567727 2.0336828 -8.660254
      vertex -2.5 1.8163557 -9.510565
    endloop
  endfacet
  facet normal -0.5610265 0.18228848 -0.80747765
    outer loop
      vertex -4.8907375 1.0395584 -8.660254
      vertex -6.545085 1.3912001 -7.431448
      vertex -4.567727 2.0336828 -8.660254
    endloop
  endfacet
  facet normal -0.64516234 0.37248445 -0.6670988
    outer loop
      vertex -6.112812 2.7215986 -7.431448
      vertex -7.3907375 3.2905684 -5.8778524
      vertex -6.545085 4.7552824 -5.8778524
    endloop
  endfacet
  facet normal -0.70850784 0.23020826 -0.6670988
    outer loop
      vertex -6.545085 1.3912001 -7.431448
      vertex -7.3907375 3.2905684 -5.8778524
      vertex -6.112812 2.7215986 -7.431448
    endloop
  endfacet
  facet normal -0.86246014 0.09064827 -0.49794123
    outer loop
      vertex -8.09017 0 -5.8778524
      vertex -9.135454 0 -4.0673656
      vertex -8.9358225 1.8993673 -4.0673656
    endloop
  endfacet
  facet normal -0.5866666 -0.06166141 -0.80747765
    outer loop
      vertex -4.8907375 -1.0395584 -8.660254
      vertex -6.545085 -1.3912001 -7.431448
      vertex -5 0 -8.660254
    endloop
  endfacet
  facet normal -0.34673384 -0.47723764 -0.8074775
    outer loop
      vertex -3.3456526 -5.794841 -7.431448
      vertex -4.477357 -4.9726086 -7.431448
      vertex -3.3456526 -3.715724 -8.660254
    endloop
  endfacet
  facet normal -0.43788195 -0.6026927 -0.6670989
    outer loop
      vertex -4.045085 -7.0062923 -5.8778524
      vertex -5.4133797 -6.012168 -5.8778524
      vertex -3.3456526 -5.794841 -7.431448
    endloop
  endfacet
  facet normal -0.40453273 0.90859514 -0.103962064
    outer loop
      vertex -4.8907375 8.471006 -2.0791168
      vertex -5 8.660254 0
      vertex -3.0226421 9.302736 -2.0791168
    endloop
  endfacet
  facet normal -0.38703158 0.8692869 -0.3074847
    outer loop
      vertex -2.8230104 8.6883335 -4.0673656
      vertex -4.8907375 8.471006 -2.0791168
      vertex -3.0226421 9.302736 -2.0791168
    endloop
  endfacet
  facet normal -0.5846003 0.8046331 -0.103962004
    outer loop
      vertex -6.545085 7.2690525 -2.0791168
      vertex -6.691305 7.431448 0
      vertex -5 8.660254 0
    endloop
  endfacet
  facet normal -0.7391177 0.66550505 -0.10396191
    outer loop
      vertex -6.545085 7.2690525 -2.0791168
      vertex -8.09017 5.8778524 0
      vertex -6.691305 7.431448 0
    endloop
  endfacet
  facet normal -0.50973374 0.7015882 -0.49794126
    outer loop
      vertex -4.045085 7.0062923 -5.8778524
      vertex -6.112812 6.788965 -4.0673656
      vertex -4.567727 7.9115353 -4.0673656
    endloop
  endfacet
  facet normal -0.64446306 0.5802774 -0.49794132
    outer loop
      vertex -5.4133797 6.012168 -5.8778524
      vertex -6.545085 4.7552824 -5.8778524
      vertex -6.112812 6.788965 -4.0673656
    endloop
  endfacet
  facet normal -0.30300614 0.68056333 -0.6670988
    outer loop
      vertex -3.3456526 5.794841 -7.431448
      vertex -4.045085 7.0062923 -5.8778524
      vertex -2.5 7.694208 -5.8778524
    endloop
  endfacet
  facet normal -0.1548879 0.72868985 -0.6670988
    outer loop
      vertex -2.067727 6.3638096 -7.431448
      vertex -2.5 7.694208 -5.8778524
      vertex -0.8456526 8.045851 -5.8778524
    endloop
  endfacet
  facet normal 0 0.58989817 -0.80747765
    outer loop
      vertex -0.52264214 4.9726086 -8.660254
      vertex 0.6994314 6.6546497 -7.431448
      vertex 0.52264214 4.9726086 -8.660254
    endloop
  endfacet
  facet normal 0 0.58989817 -0.80747765
    outer loop
      vertex 0.6994314 6.6546497 -7.431448
      vertex -0.52264214 4.9726086 -8.660254
      vertex -0.6994314 6.6546497 -7.431448
    endloop
  endfacet
  facet normal 0.12264631 0.57700753 -0.80747765
    outer loop
      vertex 1.545085 4.7552824 -8.660254
      vertex 0.52264214 4.9726086 -8.660254
      vertex 0.6994314 6.6546497 -7.431448
    endloop
  endfacet
  facet normal 0.38860545 0.12626551 -0.9127118
    outer loop
      vertex 4.8907375 1.0395584 -8.660254
      vertex 3.0226421 0.6424818 -9.510565
      vertex 4.567727 2.0336828 -8.660254
    endloop
  endfacet
  facet normal 0.35386142 0.20430176 -0.91271186
    outer loop
      vertex 2.8230104 1.2568846 -9.510565
      vertex 2.5 1.8163557 -9.510565
      vertex 4.567727 2.0336828 -8.660254
    endloop
  endfacet
  facet normal 0.34673384 0.47723764 -0.8074775
    outer loop
      vertex 4.477357 4.9726086 -7.431448
      vertex 3.3456526 3.715724 -8.660254
      vertex 3.3456526 5.794841 -7.431448
    endloop
  endfacet
  facet normal 0.5536198 0.4984816 -0.66709906
    outer loop
      vertex 5.4133797 3.9330502 -7.431448
      vertex 4.477357 4.9726086 -7.431448
      vertex 6.545085 4.7552824 -5.8778524
    endloop
  endfacet
  facet normal 0.15488777 0.7286898 -0.6670989
    outer loop
      vertex 2.067727 6.3638096 -7.431448
      vertex 0.6994314 6.6546497 -7.431448
      vertex 0.8456526 8.045851 -5.8778524
    endloop
  endfacet
  facet normal 0.30300614 0.68056333 -0.6670988
    outer loop
      vertex 3.3456526 5.794841 -7.431448
      vertex 2.5 7.694208 -5.8778524
      vertex 4.045085 7.0062923 -5.8778524
    endloop
  endfacet
  facet normal 0.94590306 -0.30734238 -0.103961766
    outer loop
      vertex 9.781475 -2.0791168 0
      vertex 9.135454 -4.0673656 0
      vertex 9.567727 -2.0336828 -2.0791168
    endloop
  endfacet
  facet normal 0 -0.86721075 -0.49794132
    outer loop
      vertex -0.8456526 -8.045851 -5.8778524
      vertex 0.9549141 -9.085409 -4.0673656
      vertex -0.9549141 -9.085409 -4.0673656
    endloop
  endfacet
  facet normal 0 -0.86721075 -0.49794132
    outer loop
      vertex 0.9549141 -9.085409 -4.0673656
      vertex -0.8456526 -8.045851 -5.8778524
      vertex 0.8456526 -8.045851 -5.8778524
    endloop
  endfacet
  facet normal 0.40453273 -0.90859514 -0.103962064
    outer loop
      vertex 5 -8.660254 0
      vertex 3.0226421 -9.302736 -2.0791168
      vertex 4.8907375 -8.471006 -2.0791168
    endloop
  endfacet
  facet normal 0.4045327 -0.9085952 -0.10396202
    outer loop
      vertex 3.09017 -9.510565 0
      vertex 3.0226421 -9.302736 -2.0791168
      vertex 5 -8.660254 0
    endloop
  endfacet
  facet normal 0.122646734 -0.57700765 -0.80747753
    outer loop
      vertex 2.067727 -6.3638096 -7.431448
      vertex 0.6994314 -6.6546497 -7.431448
      vertex 1.545085 -4.7552824 -8.660254
    endloop
  endfacet
  facet normal 0.15488777 -0.7286898 -0.6670989
    outer loop
      vertex 0.8456526 -8.045851 -5.8778524
      vertex 0.6994314 -6.6546497 -7.431448
      vertex 2.067727 -6.3638096 -7.431448
    endloop
  endfacet
  facet normal 0.084953256 -0.39967507 -0.9127118
    outer loop
      vertex 0.52264214 -4.9726086 -8.660254
      vertex 0.32301044 -3.0732412 -9.510565
      vertex 1.545085 -4.7552824 -8.660254
    endloop
  endfacet
  facet normal 0.08501052 0.19093731 -0.9779142
    outer loop
      vertex 0.52264214 0.9052429 -9.945218
      vertex 0.32301044 0.9941244 -9.945218
      vertex 1.545085 2.6761656 -9.510565
    endloop
  endfacet
  facet normal 0.23993316 -0.538899 -0.80747753
    outer loop
      vertex 2.067727 -6.3638096 -7.431448
      vertex 1.545085 -4.7552824 -8.660254
      vertex 3.3456526 -5.794841 -7.431448
    endloop
  endfacet
  facet normal 0.23993327 -0.5388989 -0.8074776
    outer loop
      vertex 3.3456526 -5.794841 -7.431448
      vertex 1.545085 -4.7552824 -8.660254
      vertex 2.5 -4.330127 -8.660254
    endloop
  endfacet
  facet normal -0.18030332 -0.8482599 -0.49794155
    outer loop
      vertex -0.8456526 -8.045851 -5.8778524
      vertex -2.8230104 -8.6883335 -4.0673656
      vertex -2.5 -7.694208 -5.8778524
    endloop
  endfacet
  facet normal -0.3527262 -0.7922364 -0.49794152
    outer loop
      vertex -2.8230104 -8.6883335 -4.0673656
      vertex -4.045085 -7.0062923 -5.8778524
      vertex -2.5 -7.694208 -5.8778524
    endloop
  endfacet
  facet normal -0.40636554 -0.042710926 -0.9127118
    outer loop
      vertex -4.8907375 -1.0395584 -8.660254
      vertex -5 0 -8.660254
      vertex -3.0226421 -0.6424818 -9.510565
    endloop
  endfacet
  facet normal 0.15532227 0.13985291 -0.9779142
    outer loop
      vertex 2.5 1.8163557 -9.510565
      vertex 0.8456526 0.6144028 -9.945218
      vertex 2.067727 2.296443 -9.510565
    endloop
  endfacet
  facet normal -0.3467336 -0.47723767 -0.80747753
    outer loop
      vertex -2.5 -4.330127 -8.660254
      vertex -3.3456526 -5.794841 -7.431448
      vertex -3.3456526 -3.715724 -8.660254
    endloop
  endfacet
  facet normal -0.43788213 -0.60269237 -0.66709906
    outer loop
      vertex -3.3456526 -5.794841 -7.431448
      vertex -5.4133797 -6.012168 -5.8778524
      vertex -4.477357 -4.9726086 -7.431448
    endloop
  endfacet
  facet normal -0.9891328 0.103961706 -0.1039625
    outer loop
      vertex -9.781475 0 -2.0791168
      vertex -10 0 0
      vertex -9.567727 2.0336828 -2.0791168
    endloop
  endfacet
  facet normal -0.94634044 0.09946406 -0.30748448
    outer loop
      vertex -9.135454 0 -4.0673656
      vertex -9.781475 0 -2.0791168
      vertex -9.567727 2.0336828 -2.0791168
    endloop
  endfacet
  facet normal -0.8247664 -0.26798266 -0.49794143
    outer loop
      vertex -7.3907375 -3.2905684 -5.8778524
      vertex -8.9358225 -1.8993673 -4.0673656
      vertex -7.9133797 -1.6820402 -5.8778524
    endloop
  endfacet
  facet normal -0.86246014 -0.09064827 -0.49794123
    outer loop
      vertex -8.9358225 -1.8993673 -4.0673656
      vertex -9.135454 0 -4.0673656
      vertex -8.09017 0 -5.8778524
    endloop
  endfacet
  facet normal -0.8240691 -0.47577658 -0.3074846
    outer loop
      vertex -7.3907375 -5.369685 -4.0673656
      vertex -8.9358225 -3.9784842 -2.0791168
      vertex -8.345653 -3.715724 -4.0673656
    endloop
  endfacet
  facet normal -0.8240691 -0.47577658 -0.3074846
    outer loop
      vertex -7.9133797 -5.749407 -2.0791168
      vertex -8.9358225 -3.9784842 -2.0791168
      vertex -7.3907375 -5.369685 -4.0673656
    endloop
  endfacet
  facet normal -0.74088806 0.07787004 -0.66709906
    outer loop
      vertex -6.691305 0 -7.431448
      vertex -8.09017 0 -5.8778524
      vertex -6.545085 1.3912001 -7.431448
    endloop
  endfacet
  facet normal -0.86245996 0.09064855 -0.49794143
    outer loop
      vertex -8.09017 0 -5.8778524
      vertex -8.9358225 1.8993673 -4.0673656
      vertex -7.9133797 1.6820402 -5.8778524
    endloop
  endfacet
  facet normal 0.86246014 0.09064827 -0.49794123
    outer loop
      vertex 9.135454 0 -4.0673656
      vertex 8.09017 0 -5.8778524
      vertex 8.9358225 1.8993673 -4.0673656
    endloop
  endfacet
  facet normal 0.86245996 0.09064855 -0.49794143
    outer loop
      vertex 8.09017 0 -5.8778524
      vertex 7.9133797 1.6820402 -5.8778524
      vertex 8.9358225 1.8993673 -4.0673656
    endloop
  endfacet
  facet normal 0 0.951553 -0.30748484
    outer loop
      vertex 0.9549141 9.085409 -4.0673656
      vertex -1.0224419 9.727892 -2.0791168
      vertex 1.0224419 9.727892 -2.0791168
    endloop
  endfacet
  facet normal 0 0.951553 -0.30748484
    outer loop
      vertex -1.0224419 9.727892 -2.0791168
      vertex 0.9549141 9.085409 -4.0673656
      vertex -0.9549141 9.085409 -4.0673656
    endloop
  endfacet
  facet normal 0.1548879 0.72868985 -0.6670988
    outer loop
      vertex 2.067727 6.3638096 -7.431448
      vertex 0.8456526 8.045851 -5.8778524
      vertex 2.5 7.694208 -5.8778524
    endloop
  endfacet
  facet normal -0.19783898 0.9307593 -0.30748466
    outer loop
      vertex -2.8230104 8.6883335 -4.0673656
      vertex -3.0226421 9.302736 -2.0791168
      vertex -1.0224419 9.727892 -2.0791168
    endloop
  endfacet
  facet normal -0.20678505 0.9728473 -0.103962004
    outer loop
      vertex -3.0226421 9.302736 -2.0791168
      vertex -3.09017 9.510565 0
      vertex -1.0224419 9.727892 -2.0791168
    endloop
  endfacet
  facet normal 0.70850784 0.23020826 -0.6670988
    outer loop
      vertex 6.545085 1.3912001 -7.431448
      vertex 6.112812 2.7215986 -7.431448
      vertex 7.3907375 3.2905684 -5.8778524
    endloop
  endfacet
  facet normal 0.708508 0.23020805 -0.6670987
    outer loop
      vertex 7.9133797 1.6820402 -5.8778524
      vertex 6.545085 1.3912001 -7.431448
      vertex 7.3907375 3.2905684 -5.8778524
    endloop
  endfacet
  facet normal 0.1228513 -0.16908993 -0.9779142
    outer loop
      vertex 1.545085 -2.6761656 -9.510565
      vertex 0.52264214 -0.9052429 -9.945218
      vertex 2.067727 -2.296443 -9.510565
    endloop
  endfacet
  facet normal 0.3538614 0.20430192 -0.9127118
    outer loop
      vertex 4.567727 2.0336828 -8.660254
      vertex 2.5 1.8163557 -9.510565
      vertex 4.045085 2.9389257 -8.660254
    endloop
  endfacet
  facet normal 0.645162 0.3724847 -0.66709906
    outer loop
      vertex 6.112812 2.7215986 -7.431448
      vertex 5.4133797 3.9330502 -7.431448
      vertex 6.545085 4.7552824 -5.8778524
    endloop
  endfacet
  facet normal 0.5108669 0.29494935 -0.8074775
    outer loop
      vertex 6.112812 2.7215986 -7.431448
      vertex 4.045085 2.9389257 -8.660254
      vertex 5.4133797 3.9330502 -7.431448
    endloop
  endfacet
  facet normal 0.40636554 -0.042710874 -0.9127118
    outer loop
      vertex 5 0 -8.660254
      vertex 3.0226421 -0.6424818 -9.510565
      vertex 3.09017 0 -9.510565
    endloop
  endfacet
  facet normal 0.2078618 -0.021847224 -0.9779142
    outer loop
      vertex 3.0226421 -0.6424818 -9.510565
      vertex 1.0452843 0 -9.945218
      vertex 3.09017 0 -9.510565
    endloop
  endfacet
  facet normal -0.12285151 -0.16908969 -0.9779142
    outer loop
      vertex -0.52264214 -0.9052429 -9.945218
      vertex -2.067727 -2.296443 -9.510565
      vertex -0.6994314 -0.7767973 -9.945218
    endloop
  endfacet
  facet normal 0.38860536 -0.12626562 -0.9127118
    outer loop
      vertex 4.567727 -2.0336828 -8.660254
      vertex 2.8230104 -1.2568846 -9.510565
      vertex 3.0226421 -0.6424818 -9.510565
    endloop
  endfacet
  facet normal 0.35386142 -0.20430176 -0.91271186
    outer loop
      vertex 4.567727 -2.0336828 -8.660254
      vertex 2.5 -1.8163557 -9.510565
      vertex 2.8230104 -1.2568846 -9.510565
    endloop
  endfacet
  facet normal 0.24017166 -0.33056718 -0.91271186
    outer loop
      vertex 3.3456526 -3.715724 -8.660254
      vertex 1.545085 -2.6761656 -9.510565
      vertex 2.067727 -2.296443 -9.510565
    endloop
  endfacet
  facet normal 0.24017143 -0.3305675 -0.9127118
    outer loop
      vertex 2.5 -4.330127 -8.660254
      vertex 1.545085 -2.6761656 -9.510565
      vertex 3.3456526 -3.715724 -8.660254
    endloop
  endfacet
  facet normal -0.08495364 0.3996748 -0.91271186
    outer loop
      vertex -0.9549141 2.9389257 -9.510565
      vertex -1.545085 4.7552824 -8.660254
      vertex -0.32301044 3.0732412 -9.510565
    endloop
  endfacet
  facet normal -0.085010506 0.19093733 -0.9779142
    outer loop
      vertex -0.32301044 0.9941244 -9.945218
      vertex -1.545085 2.6761656 -9.510565
      vertex -0.9549141 2.9389257 -9.510565
    endloop
  endfacet
  facet normal 0.18100524 -0.10450331 -0.9779142
    outer loop
      vertex 2.5 -1.8163557 -9.510565
      vertex 0.8456526 -0.6144028 -9.945218
      vertex 2.8230104 -1.2568846 -9.510565
    endloop
  endfacet
  facet normal -0.18100524 0.10450331 -0.9779142
    outer loop
      vertex -0.8456526 0.6144028 -9.945218
      vertex -2.8230104 1.2568846 -9.510565
      vertex -2.5 1.8163557 -9.510565
    endloop
  endfacet
  facet normal 0 -0.20900683 -0.97791415
    outer loop
      vertex 0.32301044 -3.0732412 -9.510565
      vertex -0.10926151 -1.0395584 -9.945218
      vertex 0.10926151 -1.0395584 -9.945218
    endloop
  endfacet
  facet normal 0 -0.20900683 -0.97791415
    outer loop
      vertex -0.10926151 -1.0395584 -9.945218
      vertex 0.32301044 -3.0732412 -9.510565
      vertex -0.32301044 -3.0732412 -9.510565
    endloop
  endfacet
  facet normal -0.16619422 0.37327826 -0.9127118
    outer loop
      vertex -1.545085 2.6761656 -9.510565
      vertex -2.5 4.330127 -8.660254
      vertex -1.545085 4.7552824 -8.660254
    endloop
  endfacet
  facet normal -0.16619368 0.3732783 -0.91271186
    outer loop
      vertex -0.9549141 2.9389257 -9.510565
      vertex -1.545085 2.6761656 -9.510565
      vertex -1.545085 4.7552824 -8.660254
    endloop
  endfacet
  facet normal -0.4383799 0.39471912 -0.8074775
    outer loop
      vertex -3.3456526 3.715724 -8.660254
      vertex -5.4133797 3.9330502 -7.431448
      vertex -4.477357 4.9726086 -7.431448
    endloop
  endfacet
  facet normal -0.43788195 0.6026927 -0.6670989
    outer loop
      vertex -3.3456526 5.794841 -7.431448
      vertex -5.4133797 6.012168 -5.8778524
      vertex -4.045085 7.0062923 -5.8778524
    endloop
  endfacet
  facet normal -0.38860545 0.12626551 -0.9127118
    outer loop
      vertex -3.0226421 0.6424818 -9.510565
      vertex -4.8907375 1.0395584 -8.660254
      vertex -4.567727 2.0336828 -8.660254
    endloop
  endfacet
  facet normal -0.40636554 0.042710926 -0.9127118
    outer loop
      vertex -3.0226421 0.6424818 -9.510565
      vertex -5 0 -8.660254
      vertex -4.8907375 1.0395584 -8.660254
    endloop
  endfacet
  facet normal -0.8247664 0.26798278 -0.49794134
    outer loop
      vertex -7.3907375 3.2905684 -5.8778524
      vertex -8.9358225 1.8993673 -4.0673656
      vertex -8.345653 3.715724 -4.0673656
    endloop
  endfacet
  facet normal -0.7510266 0.43360516 -0.49794137
    outer loop
      vertex -7.3907375 3.2905684 -5.8778524
      vertex -8.345653 3.715724 -4.0673656
      vertex -6.545085 4.7552824 -5.8778524
    endloop
  endfacet
  facet normal -0.7408883 0.0778708 -0.6670987
    outer loop
      vertex -6.545085 1.3912001 -7.431448
      vertex -8.09017 0 -5.8778524
      vertex -7.9133797 1.6820402 -5.8778524
    endloop
  endfacet
  facet normal -0.58666694 0.061660837 -0.8074775
    outer loop
      vertex -5 0 -8.660254
      vertex -6.691305 0 -7.431448
      vertex -6.545085 1.3912001 -7.431448
    endloop
  endfacet
  facet normal -0.5536198 -0.49848172 -0.667099
    outer loop
      vertex -5.4133797 -6.012168 -5.8778524
      vertex -6.545085 -4.7552824 -5.8778524
      vertex -4.477357 -4.9726086 -7.431448
    endloop
  endfacet
  facet normal -0.5536198 -0.4984816 -0.66709906
    outer loop
      vertex -4.477357 -4.9726086 -7.431448
      vertex -6.545085 -4.7552824 -5.8778524
      vertex -5.4133797 -3.9330502 -7.431448
    endloop
  endfacet
  facet normal -0.7071417 0.63671327 -0.30748472
    outer loop
      vertex -6.112812 6.788965 -4.0673656
      vertex -7.3907375 5.369685 -4.0673656
      vertex -6.545085 7.2690525 -2.0791168
    endloop
  endfacet
  facet normal -0.64446324 0.58027726 -0.4979412
    outer loop
      vertex -6.545085 4.7552824 -5.8778524
      vertex -7.3907375 5.369685 -4.0673656
      vertex -6.112812 6.788965 -4.0673656
    endloop
  endfacet
  facet normal -0.30300614 0.68056333 -0.6670988
    outer loop
      vertex -2.067727 6.3638096 -7.431448
      vertex -3.3456526 5.794841 -7.431448
      vertex -2.5 7.694208 -5.8778524
    endloop
  endfacet
  facet normal -0.5536198 0.49848172 -0.667099
    outer loop
      vertex -4.477357 4.9726086 -7.431448
      vertex -6.545085 4.7552824 -5.8778524
      vertex -5.4133797 6.012168 -5.8778524
    endloop
  endfacet
  facet normal -0.122646734 0.57700765 -0.80747753
    outer loop
      vertex -1.545085 4.7552824 -8.660254
      vertex -2.067727 6.3638096 -7.431448
      vertex -0.6994314 6.6546497 -7.431448
    endloop
  endfacet
  facet normal -0.15488777 0.7286898 -0.6670989
    outer loop
      vertex -0.6994314 6.6546497 -7.431448
      vertex -2.067727 6.3638096 -7.431448
      vertex -0.8456526 8.045851 -5.8778524
    endloop
  endfacet
  facet normal 0.19877714 -0.06458679 -0.9779142
    outer loop
      vertex 2.8230104 -1.2568846 -9.510565
      vertex 0.9549141 -0.4251547 -9.945218
      vertex 1.0224419 -0.21732616 -9.945218
    endloop
  endfacet
  facet normal -0.12285151 0.16908969 -0.9779142
    outer loop
      vertex -0.6994314 0.7767973 -9.945218
      vertex -2.067727 2.296443 -9.510565
      vertex -0.52264214 0.9052429 -9.945218
    endloop
  endfacet
  facet normal -0.23993316 0.538899 -0.80747753
    outer loop
      vertex -1.545085 4.7552824 -8.660254
      vertex -3.3456526 5.794841 -7.431448
      vertex -2.067727 6.3638096 -7.431448
    endloop
  endfacet
  facet normal -0.23993327 0.5388989 -0.8074776
    outer loop
      vertex -2.5 4.330127 -8.660254
      vertex -3.3456526 5.794841 -7.431448
      vertex -1.545085 4.7552824 -8.660254
    endloop
  endfacet
  facet normal 0.30300614 0.68056333 -0.6670988
    outer loop
      vertex 3.3456526 5.794841 -7.431448
      vertex 2.067727 6.3638096 -7.431448
      vertex 2.5 7.694208 -5.8778524
    endloop
  endfacet
  facet normal 0.23993316 0.538899 -0.80747753
    outer loop
      vertex 3.3456526 5.794841 -7.431448
      vertex 1.545085 4.7552824 -8.660254
      vertex 2.067727 6.3638096 -7.431448
    endloop
  endfacet
  facet normal -0.24017143 -0.3305675 -0.9127118
    outer loop
      vertex -2.5 -4.330127 -8.660254
      vertex -3.3456526 -3.715724 -8.660254
      vertex -1.545085 -2.6761656 -9.510565
    endloop
  endfacet
  facet normal -0.74088806 -0.07787004 -0.66709906
    outer loop
      vertex -6.545085 -1.3912001 -7.431448
      vertex -8.09017 0 -5.8778524
      vertex -6.691305 0 -7.431448
    endloop
  endfacet
  facet normal -0.86245996 -0.09064855 -0.49794143
    outer loop
      vertex -7.9133797 -1.6820402 -5.8778524
      vertex -8.9358225 -1.8993673 -4.0673656
      vertex -8.09017 0 -5.8778524
    endloop
  endfacet
  facet normal 0.18030304 0.84826016 -0.49794132
    outer loop
      vertex 2.8230104 8.6883335 -4.0673656
      vertex 0.8456526 8.045851 -5.8778524
      vertex 0.9549141 9.085409 -4.0673656
    endloop
  endfacet
  facet normal 0.20678481 0.97284734 -0.103961766
    outer loop
      vertex 3.09017 9.510565 0
      vertex 1.0224419 9.727892 -2.0791168
      vertex 1.0452843 9.945218 0
    endloop
  endfacet
  facet normal 0.20678505 0.9728473 -0.103962004
    outer loop
      vertex 3.0226421 9.302736 -2.0791168
      vertex 1.0224419 9.727892 -2.0791168
      vertex 3.09017 9.510565 0
    endloop
  endfacet
  facet normal 0.38860536 0.12626562 -0.9127118
    outer loop
      vertex 3.0226421 0.6424818 -9.510565
      vertex 2.8230104 1.2568846 -9.510565
      vertex 4.567727 2.0336828 -8.660254
    endloop
  endfacet
  facet normal -0.18100524 -0.10450331 -0.9779142
    outer loop
      vertex -2.5 -1.8163557 -9.510565
      vertex -2.8230104 -1.2568846 -9.510565
      vertex -0.8456526 -0.6144028 -9.945218
    endloop
  endfacet
  facet normal -0.043455195 0.20443945 -0.9779142
    outer loop
      vertex -0.32301044 0.9941244 -9.945218
      vertex -0.9549141 2.9389257 -9.510565
      vertex -0.10926151 1.0395584 -9.945218
    endloop
  endfacet
  facet normal 0.16619368 -0.3732783 -0.91271186
    outer loop
      vertex 1.545085 -4.7552824 -8.660254
      vertex 0.9549141 -2.9389257 -9.510565
      vertex 1.545085 -2.6761656 -9.510565
    endloop
  endfacet
  facet normal 0.08495364 -0.3996748 -0.91271186
    outer loop
      vertex 1.545085 -4.7552824 -8.660254
      vertex 0.32301044 -3.0732412 -9.510565
      vertex 0.9549141 -2.9389257 -9.510565
    endloop
  endfacet
  facet normal 0 -0.408604 -0.91271174
    outer loop
      vertex 0.52264214 -4.9726086 -8.660254
      vertex -0.32301044 -3.0732412 -9.510565
      vertex 0.32301044 -3.0732412 -9.510565
    endloop
  endfacet
  facet normal 0 -0.408604 -0.91271174
    outer loop
      vertex -0.32301044 -3.0732412 -9.510565
      vertex 0.52264214 -4.9726086 -8.660254
      vertex -0.52264214 -4.9726086 -8.660254
    endloop
  endfacet
  facet normal -0.084953256 -0.39967507 -0.9127118
    outer loop
      vertex -0.52264214 -4.9726086 -8.660254
      vertex -1.545085 -4.7552824 -8.660254
      vertex -0.32301044 -3.0732412 -9.510565
    endloop
  endfacet
  facet normal -0.16619368 -0.3732783 -0.91271186
    outer loop
      vertex -0.9549141 -2.9389257 -9.510565
      vertex -1.545085 -4.7552824 -8.660254
      vertex -1.545085 -2.6761656 -9.510565
    endloop
  endfacet
  facet normal -0.19877721 0.06458667 -0.9779142
    outer loop
      vertex -1.0224419 0.21732616 -9.945218
      vertex -3.0226421 0.6424818 -9.510565
      vertex -2.8230104 1.2568846 -9.510565
    endloop
  endfacet
  facet normal 0.15532206 -0.13985306 -0.9779142
    outer loop
      vertex 2.067727 -2.296443 -9.510565
      vertex 0.6994314 -0.7767973 -9.945218
      vertex 0.8456526 -0.6144028 -9.945218
    endloop
  endfacet
  facet normal -0.24017166 -0.33056718 -0.91271186
    outer loop
      vertex -1.545085 -2.6761656 -9.510565
      vertex -3.3456526 -3.715724 -8.660254
      vertex -2.067727 -2.296443 -9.510565
    endloop
  endfacet
  facet normal -0.18100546 0.10450267 -0.9779142
    outer loop
      vertex -0.9549141 0.4251547 -9.945218
      vertex -2.8230104 1.2568846 -9.510565
      vertex -0.8456526 0.6144028 -9.945218
    endloop
  endfacet
  facet normal 0.18100546 -0.10450267 -0.9779142
    outer loop
      vertex 2.8230104 -1.2568846 -9.510565
      vertex 0.8456526 -0.6144028 -9.945218
      vertex 0.9549141 -0.4251547 -9.945218
    endloop
  endfacet
  facet normal 0 0.20900683 -0.97791415
    outer loop
      vertex -0.10926151 1.0395584 -9.945218
      vertex 0.32301044 3.0732412 -9.510565
      vertex 0.10926151 1.0395584 -9.945218
    endloop
  endfacet
  facet normal 0 0.20900683 -0.97791415
    outer loop
      vertex 0.32301044 3.0732412 -9.510565
      vertex -0.10926151 1.0395584 -9.945218
      vertex -0.32301044 3.0732412 -9.510565
    endloop
  endfacet
  facet normal -0.15532227 0.13985291 -0.9779142
    outer loop
      vertex -0.8456526 0.6144028 -9.945218
      vertex -2.5 1.8163557 -9.510565
      vertex -2.067727 2.296443 -9.510565
    endloop
  endfacet
  facet normal -0.24017143 0.3305675 -0.9127118
    outer loop
      vertex -1.545085 2.6761656 -9.510565
      vertex -3.3456526 3.715724 -8.660254
      vertex -2.5 4.330127 -8.660254
    endloop
  endfacet
  facet normal -0.38860536 -0.12626562 -0.9127118
    outer loop
      vertex -2.8230104 -1.2568846 -9.510565
      vertex -4.567727 -2.0336828 -8.660254
      vertex -3.0226421 -0.6424818 -9.510565
    endloop
  endfacet
  facet normal -0.38860545 -0.12626551 -0.9127118
    outer loop
      vertex -4.567727 -2.0336828 -8.660254
      vertex -4.8907375 -1.0395584 -8.660254
      vertex -3.0226421 -0.6424818 -9.510565
    endloop
  endfacet
  facet normal -0.085010506 -0.19093733 -0.9779142
    outer loop
      vertex -0.9549141 -2.9389257 -9.510565
      vertex -1.545085 -2.6761656 -9.510565
      vertex -0.32301044 -0.9941244 -9.945218
    endloop
  endfacet
  facet normal -0.7408883 -0.0778708 -0.6670987
    outer loop
      vertex -7.9133797 -1.6820402 -5.8778524
      vertex -8.09017 0 -5.8778524
      vertex -6.545085 -1.3912001 -7.431448
    endloop
  endfacet
  facet normal -0.708508 -0.23020805 -0.6670987
    outer loop
      vertex -7.3907375 -3.2905684 -5.8778524
      vertex -7.9133797 -1.6820402 -5.8778524
      vertex -6.545085 -1.3912001 -7.431448
    endloop
  endfacet
  facet normal -0.8247664 0.26798266 -0.49794143
    outer loop
      vertex -7.9133797 1.6820402 -5.8778524
      vertex -8.9358225 1.8993673 -4.0673656
      vertex -7.3907375 3.2905684 -5.8778524
    endloop
  endfacet
  facet normal -0.708508 0.23020805 -0.6670987
    outer loop
      vertex -6.545085 1.3912001 -7.431448
      vertex -7.9133797 1.6820402 -5.8778524
      vertex -7.3907375 3.2905684 -5.8778524
    endloop
  endfacet
  facet normal 0.043455195 0.20443945 -0.9779142
    outer loop
      vertex 0.32301044 0.9941244 -9.945218
      vertex 0.10926151 1.0395584 -9.945218
      vertex 0.9549141 2.9389257 -9.510565
    endloop
  endfacet
  facet normal 0.15532206 0.13985306 -0.9779142
    outer loop
      vertex 0.8456526 0.6144028 -9.945218
      vertex 0.6994314 0.7767973 -9.945218
      vertex 2.067727 2.296443 -9.510565
    endloop
  endfacet
  facet normal -0.20786168 -0.021847628 -0.9779142
    outer loop
      vertex -1.0224419 -0.21732616 -9.945218
      vertex -3.0226421 -0.6424818 -9.510565
      vertex -1.0452843 0 -9.945218
    endloop
  endfacet
  facet normal -0.2078618 -0.021847224 -0.9779142
    outer loop
      vertex -3.0226421 -0.6424818 -9.510565
      vertex -3.09017 0 -9.510565
      vertex -1.0452843 0 -9.945218
    endloop
  endfacet
  facet normal 0.043455195 -0.20443945 -0.9779142
    outer loop
      vertex 0.9549141 -2.9389257 -9.510565
      vertex 0.10926151 -1.0395584 -9.945218
      vertex 0.32301044 -0.9941244 -9.945218
    endloop
  endfacet
  facet normal -0.08501052 0.19093731 -0.9779142
    outer loop
      vertex -0.52264214 0.9052429 -9.945218
      vertex -1.545085 2.6761656 -9.510565
      vertex -0.32301044 0.9941244 -9.945218
    endloop
  endfacet
  facet normal 0.18100546 0.10450267 -0.9779142
    outer loop
      vertex 0.9549141 0.4251547 -9.945218
      vertex 0.8456526 0.6144028 -9.945218
      vertex 2.8230104 1.2568846 -9.510565
    endloop
  endfacet
  facet normal 0.30365172 0.2734095 -0.91271186
    outer loop
      vertex 2.5 1.8163557 -9.510565
      vertex 2.067727 2.296443 -9.510565
      vertex 3.3456526 3.715724 -8.660254
    endloop
  endfacet
  facet normal 0.12285151 0.16908969 -0.9779142
    outer loop
      vertex 0.6994314 0.7767973 -9.945218
      vertex 0.52264214 0.9052429 -9.945218
      vertex 2.067727 2.296443 -9.510565
    endloop
  endfacet
  facet normal 0.1228513 0.16908993 -0.9779142
    outer loop
      vertex 2.067727 2.296443 -9.510565
      vertex 0.52264214 0.9052429 -9.945218
      vertex 1.545085 2.6761656 -9.510565
    endloop
  endfacet
  facet normal 0 0.408604 -0.91271174
    outer loop
      vertex -0.32301044 3.0732412 -9.510565
      vertex 0.52264214 4.9726086 -8.660254
      vertex 0.32301044 3.0732412 -9.510565
    endloop
  endfacet
  facet normal 0 0.408604 -0.91271174
    outer loop
      vertex 0.52264214 4.9726086 -8.660254
      vertex -0.32301044 3.0732412 -9.510565
      vertex -0.52264214 4.9726086 -8.660254
    endloop
  endfacet
  facet normal 0.084953256 0.39967507 -0.9127118
    outer loop
      vertex 1.545085 4.7552824 -8.660254
      vertex 0.32301044 3.0732412 -9.510565
      vertex 0.52264214 4.9726086 -8.660254
    endloop
  endfacet
  facet normal 0.08501052 -0.19093731 -0.9779142
    outer loop
      vertex 1.545085 -2.6761656 -9.510565
      vertex 0.32301044 -0.9941244 -9.945218
      vertex 0.52264214 -0.9052429 -9.945218
    endloop
  endfacet
  facet normal -0.18100546 -0.10450267 -0.9779142
    outer loop
      vertex -0.8456526 -0.6144028 -9.945218
      vertex -2.8230104 -1.2568846 -9.510565
      vertex -0.9549141 -0.4251547 -9.945218
    endloop
  endfacet
  facet normal -0.24017166 0.33056718 -0.91271186
    outer loop
      vertex -2.067727 2.296443 -9.510565
      vertex -3.3456526 3.715724 -8.660254
      vertex -1.545085 2.6761656 -9.510565
    endloop
  endfacet
  facet normal -0.1228513 0.16908993 -0.9779142
    outer loop
      vertex -0.52264214 0.9052429 -9.945218
      vertex -2.067727 2.296443 -9.510565
      vertex -1.545085 2.6761656 -9.510565
    endloop
  endfacet
  facet normal -0.19877721 -0.06458667 -0.9779142
    outer loop
      vertex -2.8230104 -1.2568846 -9.510565
      vertex -3.0226421 -0.6424818 -9.510565
      vertex -1.0224419 -0.21732616 -9.945218
    endloop
  endfacet
  facet normal 0 0 -1
    outer loop
      vertex 1.0224419 -0.21732616 -9.945218
      vertex 1.0224419 0.21732616 -9.945218
      vertex 1.0452843 0 -9.945218
    endloop
  endfacet
  facet normal 0 0 -1
    outer loop
      vertex 0.9549141 -0.4251547 -9.945218
      vertex 1.0224419 0.21732616 -9.945218
      vertex 1.0224419 -0.21732616 -9.945218
    endloop
  endfacet
  facet normal 0 0 -1
    outer loop
      vertex 0.9549141 -0.4251547 -9.945218
      vertex 0.9549141 0.4251547 -9.945218
      vertex 1.0224419 0.21732616 -9.945218
    endloop
  endfacet
  facet normal 0 0 -1
    outer loop
      vertex 0.8456526 -0.6144028 -9.945218
      vertex 0.9549141 0.4251547 -9.945218
      vertex 0.9549141 -0.4251547 -9.945218
    endloop
  endfacet
  facet normal 0 0 -1
    outer loop
      vertex 0.8456526 -0.6144028 -9.945218
      vertex 0.8456526 0.6144028 -9.945218
      vertex 0.9549141 0.4251547 -9.945218
    endloop
  endfacet
  facet normal 0 0 -1
    outer loop
      vertex 0.6994314 -0.7767973 -9.945218
      vertex 0.8456526 0.6144028 -9.945218
      vertex 0.8456526 -0.6144028 -9.945218
    endloop
  endfacet
  facet normal 0 0 -1
    outer loop
      vertex 0.6994314 -0.7767973 -9.945218
      vertex 0.6994314 0.7767973 -9.945218
      vertex 0.8456526 0.6144028 -9.945218
    endloop
  endfacet
  facet normal 0 0 -1
    outer loop
      vertex 0.52264214 -0.9052429 -9.945218
      vertex 0.6994314 0.7767973 -9.945218
      vertex 0.6994314 -0.7767973 -9.945218
    endloop
  endfacet
  facet normal 0 0 -1
    outer loop
      vertex 0.52264214 -0.9052429 -9.945218
      vertex 0.52264214 0.9052429 -9.945218
      vertex 0.6994314 0.7767973 -9.945218
    endloop
  endfacet
  facet normal 0 0 -1
    outer loop
      vertex 0.32301044 -0.9941244 -9.945218
      vertex 0.52264214 0.9052429 -9.945218
      vertex 0.52264214 -0.9052429 -9.945218
    endloop
  endfacet
  facet normal 0 0 -1
    outer loop
      vertex 0.32301044 -0.9941244 -9.945218
      vertex 0.32301044 0.9941244 -9.945218
      vertex 0.52264214 0.9052429 -9.945218
    endloop
  endfacet
  facet normal 0 0 -1
    outer loop
      vertex 0.10926151 -1.0395584 -9.945218
      vertex 0.32301044 0.9941244 -9.945218
      vertex 0.32301044 -0.9941244 -9.945218
    endloop
  endfacet
  facet normal 0 0 -1
    outer loop
      vertex 0.10926151 -1.0395584 -9.945218
      vertex 0.10926151 1.0395584 -9.945218
      vertex 0.32301044 0.9941244 -9.945218
    endloop
  endfacet
  facet normal 0 0 -1
    outer loop
      vertex -0.10926151 -1.0395584 -9.945218
      vertex 0.10926151 1.0395584 -9.945218
      vertex 0.10926151 -1.0395584 -9.945218
    endloop
  endfacet
  facet normal 0 0 -1
    outer loop
      vertex -0.10926151 -1.0395584 -9.945218
      vertex -0.10926151 1.0395584 -9.945218
      vertex 0.10926151 1.0395584 -9.945218
    endloop
  endfacet
  facet normal 0 0 -1
    outer loop
      vertex -0.32301044 -0.9941244 -9.945218
      vertex -0.10926151 1.0395584 -9.945218
      vertex -0.10926151 -1.0395584 -9.945218
    endloop
  endfacet
  facet normal 0 0 -1
    outer loop
      vertex -0.32301044 -0.9941244 -9.945218
      vertex -0.32301044 0.9941244 -9.945218
      vertex -0.10926151 1.0395584 -9.945218
    endloop
  endfacet
  facet normal 0 0 -1
    outer loop
      vertex -0.52264214 -0.9052429 -9.945218
      vertex -0.32301044 0.9941244 -9.945218
      vertex -0.32301044 -0.9941244 -9.945218
    endloop
  endfacet
  facet normal 0 0 -1
    outer loop
      vertex -0.52264214 -0.9052429 -9.945218
      vertex -0.52264214 0.9052429 -9.945218
      vertex -0.32301044 0.9941244 -9.945218
    endloop
  endfacet
  facet normal 0 0 -1
    outer loop
      vertex -0.6994314 -0.7767973 -9.945218
      vertex -0.52264214 0.9052429 -9.945218
      vertex -0.52264214 -0.9052429 -9.945218
    endloop
  endfacet
  facet normal 0 0 -1
    outer loop
      vertex -0.6994314 -0.7767973 -9.945218
      vertex -0.6994314 0.7767973 -9.945218
      vertex -0.52264214 0.9052429 -9.945218
    endloop
  endfacet
  facet normal 0 0 -1
    outer loop
      vertex -0.8456526 -0.6144028 -9.945218
      vertex -0.6994314 0.7767973 -9.945218
      vertex -0.6994314 -0.7767973 -9.945218
    endloop
  endfacet
  facet normal 0 0 -1
    outer loop
      vertex -0.8456526 -0.6144028 -9.945218
      vertex -0.8456526 0.6144028 -9.945218
      vertex -0.6994314 0.7767973 -9.945218
    endloop
  endfacet
  facet normal 0 0 -1
    outer loop
      vertex -0.9549141 -0.4251547 -9.945218
      vertex -0.8456526 0.6144028 -9.945218
      vertex -0.8456526 -0.6144028 -9.945218
    endloop
  endfacet
  facet normal 0 0 -1
    outer loop
      vertex -0.9549141 -0.4251547 -9.945218
      vertex -0.9549141 0.4251547 -9.945218
      vertex -0.8456526 0.6144028 -9.945218
    endloop
  endfacet
  facet normal 0 0 -1
    outer loop
      vertex -1.0224419 -0.21732616 -9.945218
      vertex -0.9549141 0.4251547 -9.945218
      vertex -0.9549141 -0.4251547 -9.945218
    endloop
  endfacet
  facet normal 0 0 -1
    outer loop
      vertex -1.0224419 -0.21732616 -9.945218
      vertex -1.0224419 0.21732616 -9.945218
      vertex -0.9549141 0.4251547 -9.945218
    endloop
  endfacet
  facet normal 0 0 -1
    outer loop
      vertex -1.0224419 0.21732616 -9.945218
      vertex -1.0224419 -0.21732616 -9.945218
      vertex -1.0452843 0 -9.945218
    endloop
  endfacet
  facet normal -0.19877714 -0.06458679 -0.9779142
    outer loop
      vertex -0.9549141 -0.4251547 -9.945218
      vertex -2.8230104 -1.2568846 -9.510565
      vertex -1.0224419 -0.21732616 -9.945218
    endloop
  endfacet
  facet normal -0.19877714 0.06458679 -0.9779142
    outer loop
      vertex -1.0224419 0.21732616 -9.945218
      vertex -2.8230104 1.2568846 -9.510565
      vertex -0.9549141 0.4251547 -9.945218
    endloop
  endfacet
  facet normal -0.08501052 -0.19093731 -0.9779142
    outer loop
      vertex -0.32301044 -0.9941244 -9.945218
      vertex -1.545085 -2.6761656 -9.510565
      vertex -0.52264214 -0.9052429 -9.945218
    endloop
  endfacet
  facet normal -0.30365172 -0.2734095 -0.91271186
    outer loop
      vertex -2.067727 -2.296443 -9.510565
      vertex -3.3456526 -3.715724 -8.660254
      vertex -2.5 -1.8163557 -9.510565
    endloop
  endfacet
  facet normal -0.15532227 -0.13985291 -0.9779142
    outer loop
      vertex -2.067727 -2.296443 -9.510565
      vertex -2.5 -1.8163557 -9.510565
      vertex -0.8456526 -0.6144028 -9.945218
    endloop
  endfacet
  facet normal -0.043455034 -0.20443952 -0.97791415
    outer loop
      vertex -0.32301044 -3.0732412 -9.510565
      vertex -0.9549141 -2.9389257 -9.510565
      vertex -0.10926151 -1.0395584 -9.945218
    endloop
  endfacet
  facet normal -0.08495364 -0.3996748 -0.91271186
    outer loop
      vertex -0.32301044 -3.0732412 -9.510565
      vertex -1.545085 -4.7552824 -8.660254
      vertex -0.9549141 -2.9389257 -9.510565
    endloop
  endfacet
  facet normal 0.043455034 0.20443952 -0.97791415
    outer loop
      vertex 0.9549141 2.9389257 -9.510565
      vertex 0.10926151 1.0395584 -9.945218
      vertex 0.32301044 3.0732412 -9.510565
    endloop
  endfacet
  facet normal 0.19877721 0.06458667 -0.9779142
    outer loop
      vertex 3.0226421 0.6424818 -9.510565
      vertex 1.0224419 0.21732616 -9.945218
      vertex 2.8230104 1.2568846 -9.510565
    endloop
  endfacet
  facet normal 0.20786168 0.021847628 -0.9779142
    outer loop
      vertex 1.0452843 0 -9.945218
      vertex 1.0224419 0.21732616 -9.945218
      vertex 3.0226421 0.6424818 -9.510565
    endloop
  endfacet
  facet normal 0.19877714 0.06458679 -0.9779142
    outer loop
      vertex 1.0224419 0.21732616 -9.945218
      vertex 0.9549141 0.4251547 -9.945218
      vertex 2.8230104 1.2568846 -9.510565
    endloop
  endfacet
  facet normal 0 0 1
    outer loop
      vertex 9.781475 2.0791168 0
      vertex 9.781475 -2.0791168 0
      vertex 10 0 0
    endloop
  endfacet
  facet normal 0 0 1
    outer loop
      vertex 9.135454 4.0673656 0
      vertex 9.781475 -2.0791168 0
      vertex 9.781475 2.0791168 0
    endloop
  endfacet
  facet normal 0 0 1
    outer loop
      vertex 9.135454 4.0673656 0
      vertex 9.135454 -4.0673656 0
      vertex 9.781475 -2.0791168 0
    endloop
  endfacet
  facet normal 0 0 1
    outer loop
      vertex 8.09017 5.8778524 0
      vertex 9.135454 -4.0673656 0
      vertex 9.135454 4.0673656 0
    endloop
  endfacet
  facet normal 0 0 1
    outer loop
      vertex 8.09017 5.8778524 0
      vertex 8.09017 -5.8778524 0
      vertex 9.135454 -4.0673656 0
    endloop
  endfacet
  facet normal 0 0 1
    outer loop
      vertex 6.691305 7.431448 0
      vertex 8.09017 -5.8778524 0
      vertex 8.09017 5.8778524 0
    endloop
  endfacet
  facet normal 0 0 1
    outer loop
      vertex 6.691305 7.431448 0
      vertex 6.691305 -7.431448 0
      vertex 8.09017 -5.8778524 0
    endloop
  endfacet
  facet normal 0 0 1
    outer loop
      vertex 5 8.660254 0
      vertex 6.691305 -7.431448 0
      vertex 6.691305 7.431448 0
    endloop
  endfacet
  facet normal 0 0 1
    outer loop
      vertex 5 8.660254 0
      vertex 5 -8.660254 0
      vertex 6.691305 -7.431448 0
    endloop
  endfacet
  facet normal 0 0 1
    outer loop
      vertex 3.09017 9.510565 0
      vertex 5 -8.660254 0
      vertex 5 8.660254 0
    endloop
  endfacet
  facet normal 0 0 1
    outer loop
      vertex 3.09017 9.510565 0
      vertex 3.09017 -9.510565 0
      vertex 5 -8.660254 0
    endloop
  endfacet
  facet normal 0 0 1
    outer loop
      vertex 1.0452843 9.945218 0
      vertex 3.09017 -9.510565 0
      vertex 3.09017 9.510565 0
    endloop
  endfacet
  facet normal 0 0 1
    outer loop
      vertex 1.0452843 9.945218 0
      vertex 1.0452843 -9.945218 0
      vertex 3.09017 -9.510565 0
    endloop
  endfacet
  facet normal 0 0 1
    outer loop
      vertex -1.0452843 9.945218 0
      vertex 1.0452843 -9.945218 0
      vertex 1.0452843 9.945218 0
    endloop
  endfacet
  facet normal 0 0 1
    outer loop
      vertex -1.0452843 9.945218 0
      vertex -1.0452843 -9.945218 0
      vertex 1.0452843 -9.945218 0
    endloop
  endfacet
  facet normal 0 0 1
    outer loop
      vertex -3.09017 9.510565 0
      vertex -1.0452843 -9.945218 0
      vertex -1.0452843 9.945218 0
    endloop
  endfacet
  facet normal 0 0 1
    outer loop
      vertex -3.09017 9.510565 0
      vertex -3.09017 -9.510565 0
      vertex -1.0452843 -9.945218 0
    endloop
  endfacet
  facet normal 0 0 1
    outer loop
      vertex -5 8.660254 0
      vertex -3.09017 -9.510565 0
      vertex -3.09017 9.510565 0
    endloop
  endfacet
  facet normal 0 0 1
    outer loop
      vertex -5 8.660254 0
      vertex -5 -8.660254 0
      vertex -3.09017 -9.510565 0
    endloop
  endfacet
  facet normal 0 0 1
    outer loop
      vertex -6.691305 7.431448 0
      vertex -5 -8.660254 0
      vertex -5 8.660254 0
    endloop
  endfacet
  facet normal 0 0 1
    outer loop
      vertex -6.691305 7.431448 0
      vertex -6.691305 -7.431448 0
      vertex -5 -8.660254 0
    endloop
  endfacet
  facet normal 0 0 1
    outer loop
      vertex -8.09017 5.8778524 0
      vertex -6.691305 -7.431448 0
      vertex -6.691305 7.431448 0
    endloop
  endfacet
  facet normal 0 0 1
    outer loop
      vertex -8.09017 5.8778524 0
      vertex -8.09017 -5.8778524 0
      vertex -6.691305 -7.431448 0
    endloop
  endfacet
  facet normal 0 0 1
    outer loop
      vertex -9.135454 4.0673656 0
      vertex -8.09017 -5.8778524 0
      vertex -8.09017 5.8778524 0
    endloop
  endfacet
  facet normal 0 0 1
    outer loop
      vertex -9.135454 4.0673656 0
      vertex -9.135454 -4.0673656 0
      vertex -8.09017 -5.8778524 0
    endloop
  endfacet
  facet normal 0 0 1
    outer loop
      vertex -9.781475 2.0791168 0
      vertex -9.135454 -4.0673656 0
      vertex -9.135454 4.0673656 0
    endloop
  endfacet
  facet normal 0 0 1
    outer loop
      vertex -9.781475 2.0791168 0
      vertex -9.781475 -2.0791168 0
      vertex -9.135454 -4.0673656 0
    endloop
  endfacet
  facet normal 0 0 1
    outer loop
      vertex -9.781475 -2.0791168 0
      vertex -9.781475 2.0791168 0
      vertex -10 0 0
    endloop
  endfacet
endsolid OpenSCAD_Model
